<svg width="124" height="111" viewBox="0 0 124 111" fill="none" xmlns="http://www.w3.org/2000/svg">
<g clip-path="url(#clip0_199_822)">
<path d="M107.192 111H16.0141C13.091 111 10.245 110.219 7.78381 108.739C5.46881 107.347 3.52425 105.363 2.16 102.998C0.79576 100.635 0.0495073 97.9573 0.00286652 95.2555C-0.047362 92.3842 0.698891 89.5272 2.16 86.9942L47.7487 8.00228C49.2107 5.46924 51.3104 3.39471 53.821 2.00301C56.1835 0.692969 58.8743 0.00115967 61.6028 0.00115967C64.3313 0.00115967 67.0221 0.693866 69.3847 2.00301C71.8961 3.3956 73.9958 5.47013 75.4569 8.00228L121.046 86.9951C122.508 89.5281 123.253 92.3842 123.203 95.2564C123.155 97.9582 122.41 100.636 121.046 102.999C119.681 105.363 117.737 107.348 115.422 108.74C112.961 110.22 110.115 111.001 107.192 111.001V111ZM61.6028 9.68739C60.5068 9.68739 57.7801 9.99516 56.1351 12.8458L10.5464 91.8387C8.90139 94.6893 9.99835 97.2053 10.5464 98.1556C11.0944 99.1049 12.7241 101.314 16.0141 101.314H107.192C110.481 101.314 112.111 99.1049 112.659 98.1556C113.207 97.2062 114.304 94.6893 112.659 91.8387L67.0714 12.8458C65.4265 9.99516 62.6998 9.68739 61.6037 9.68739H61.6028Z" fill="white"/>
<path d="M68.3861 37.5739C68.4068 37.3972 68.4731 36.656 68.2821 35.7237C67.6462 32.6146 64.8961 30.2754 61.5999 30.2754C58.3036 30.2754 55.4227 32.7277 54.8755 35.9489C54.7858 36.4766 54.7733 37.0149 54.811 37.5488L57.6112 76.8052C57.8597 78.8384 59.6159 80.3647 61.634 80.3306C63.6019 80.2974 65.2782 78.7882 65.5204 76.8052C66.9241 55.8984 67.9789 40.9809 68.3852 37.5739H68.3861Z" fill="white"/>
<path d="M61.6025 95.0722C64.4732 95.0722 66.8003 92.7442 66.8003 89.8725C66.8003 87.0007 64.4732 84.6727 61.6025 84.6727C58.7319 84.6727 56.4048 87.0007 56.4048 89.8725C56.4048 92.7442 58.7319 95.0722 61.6025 95.0722Z" fill="white"/>
</g>
<defs>
<clipPath id="clip0_199_822">
<rect width="123.206" height="111" fill="white"/>
</clipPath>
</defs>
</svg>
