<svg width="27" height="27" viewBox="0 0 27 27" fill="none" xmlns="http://www.w3.org/2000/svg">
<path d="M16.0945 5.62286C17.234 5.8431 18.2813 6.39517 19.1022 7.20842C19.9232 8.02168 20.4805 9.05911 20.7028 10.1879M16.0945 1C18.462 1.26054 20.6697 2.31078 22.3551 3.97829C24.0405 5.64579 25.1035 7.83144 25.3695 10.1764M24.2028 19.399V22.8661C24.2041 23.188 24.1376 23.5066 24.0074 23.8015C23.8772 24.0964 23.6863 24.3611 23.4469 24.5787C23.2075 24.7963 22.9248 24.962 22.617 25.0651C22.3092 25.1682 21.9831 25.2065 21.6595 25.1776C18.0694 24.7911 14.621 23.5759 11.5911 21.6295C8.77227 19.8551 6.38236 17.4876 4.59114 14.6952C2.61944 11.6802 1.39242 8.24748 1.00947 4.67517C0.980315 4.35558 1.01866 4.03347 1.12205 3.72936C1.22545 3.42525 1.39164 3.1458 1.61003 2.9088C1.82842 2.6718 2.09424 2.48245 2.39056 2.35279C2.68688 2.22313 3.0072 2.15602 3.33114 2.15571H6.83114C7.39733 2.15019 7.94623 2.34881 8.37552 2.71454C8.80482 3.08027 9.08523 3.58816 9.16447 4.14354C9.3122 5.25311 9.58616 6.34255 9.98114 7.3911C10.1381 7.80476 10.1721 8.25432 10.079 8.68652C9.98598 9.11872 9.76981 9.51543 9.45614 9.82966L7.97447 11.2974C9.63528 14.1908 12.0537 16.5865 14.9745 18.2317L16.4561 16.7639C16.7733 16.4532 17.1738 16.2391 17.6101 16.1469C18.0464 16.0547 18.5002 16.0884 18.9178 16.2439C19.9763 16.6351 21.0761 16.9065 22.1961 17.0529C22.7629 17.1321 23.2804 17.4149 23.6504 17.8474C24.0204 18.28 24.217 18.8322 24.2028 19.399Z" stroke="#25AAE1" stroke-width="2" stroke-linecap="round" stroke-linejoin="round"/>
</svg>
