<svg width="43" height="38" viewBox="0 0 43 38" fill="none" xmlns="http://www.w3.org/2000/svg">
<g clip-path="url(#clip0_191_208)">
<path d="M42.4368 19.7748L37.0214 11.048C36.3401 9.94923 35.1653 9.29334 33.8787 9.29334H32.4552V9.0428C32.4552 7.71666 31.3841 6.63787 30.0675 6.63787C28.7509 6.63787 27.6799 7.71666 27.6799 9.0428V9.29334H26.1129C25.5219 9.29334 25.0435 9.77528 25.0435 10.3705V25.2246H24.2006L21.8335 19.2633C21.8311 19.2577 21.8288 19.2521 21.8264 19.2466C21.82 19.2322 21.8145 19.2178 21.8074 19.2035C21.8026 19.1931 21.7979 19.1827 21.7923 19.1731C21.786 19.1596 21.7789 19.1468 21.7717 19.1341C21.7662 19.1237 21.7598 19.1133 21.7535 19.1029C21.7464 19.091 21.7385 19.079 21.7313 19.0678C21.7242 19.0575 21.7171 19.0463 21.7099 19.0359C21.702 19.0255 21.6941 19.0152 21.6862 19.004C21.6782 18.9936 21.6695 18.9824 21.6616 18.9729C21.6584 18.9689 21.6561 18.9657 21.6529 18.9617L6.37633 1.01176C5.82892 0.368638 5.03357 0 4.19306 0C2.60789 0 1.3182 1.29901 1.3182 2.89564V13.2757H1.06945C0.478482 13.2757 0 13.7577 0 14.3529V18.3361C0 18.9314 0.478482 19.4133 1.06945 19.4133H1.3182V19.6639C1.3182 19.7644 1.33167 19.8618 1.35702 19.9535C1.26513 19.928 1.16927 19.9144 1.06945 19.9144C0.478482 19.9144 0 20.3964 0 20.9916C0 22.3177 1.07104 23.3965 2.38766 23.3965C3.70427 23.3965 4.77531 22.3177 4.77531 20.9916C4.77531 20.3485 4.5234 19.7636 4.11384 19.3319C4.50201 19.1708 4.77531 18.7854 4.77531 18.3361V14.3529C4.77531 13.7577 4.29683 13.2757 3.70586 13.2757H3.45711V6.96342L13.0347 19.8251L10.8902 25.2238H1.06945C0.478482 25.2238 0 25.7057 0 26.3009V32.9388C0 33.5341 0.478482 34.016 1.06945 34.016H5.38847C5.88042 36.2901 7.89337 37.9992 10.2969 37.9992C12.7004 37.9992 14.7133 36.2909 15.2045 34.016H30.4319C30.9239 36.2901 32.9368 37.9992 35.3403 37.9992C37.7438 37.9992 39.7568 36.2909 40.2487 34.016H41.9313C42.5223 34.016 43.0008 33.5341 43.0008 32.9388V21.752C43.0008 21.0514 42.8059 20.3676 42.4376 19.774L42.4368 19.7748ZM2.13891 17.2589V15.4301H2.6364V17.2589H2.13891ZM2.38766 21.2421C2.25061 21.2421 2.13891 21.1296 2.13891 20.9916C2.13891 20.8911 2.12544 20.7937 2.10009 20.702C2.19199 20.7275 2.28784 20.7411 2.38766 20.7411C2.52471 20.7411 2.6364 20.8536 2.6364 20.9916C2.6364 21.1296 2.52471 21.2421 2.38766 21.2421ZM29.8188 9.0428C29.8188 8.90476 29.9305 8.79225 30.0675 8.79225C30.2046 8.79225 30.3163 8.90476 30.3163 9.0428V9.29334H29.8188V9.0428ZM27.1824 11.4477H33.8787C34.4222 11.4477 34.9189 11.7246 35.2072 12.1898L40.6226 20.9174C40.7787 21.1687 40.8611 21.4576 40.8611 21.7536V25.2254H27.1832V11.4485L27.1824 11.4477ZM3.60446 3.57068C3.5094 3.44301 3.45711 3.28582 3.45711 3.12624V2.89564C3.45711 2.48711 3.78745 2.15438 4.19306 2.15438C4.40853 2.15438 4.61212 2.24853 4.75234 2.4137L18.5158 18.5867H14.7854L3.60446 3.57068ZM14.9747 20.7411H20.1168L21.8977 25.2246H13.1939L14.9747 20.7411ZM10.2969 35.8456C8.70615 35.8456 7.41251 34.5426 7.41172 32.9412C7.41172 32.9404 7.41172 32.9404 7.41172 32.9396C7.41172 31.3382 8.70615 30.0352 10.2969 30.0352C11.8876 30.0352 13.1773 31.335 13.1812 32.934C13.1812 32.9364 13.1812 32.9388 13.1812 32.9412C13.1812 32.9436 13.1812 32.946 13.1812 32.9484C13.1773 34.5474 11.8852 35.8472 10.2969 35.8472V35.8456ZM35.3403 35.8456C33.7496 35.8456 32.4552 34.5418 32.4552 32.9396C32.4552 31.3374 33.7496 30.0336 35.3403 30.0336C36.931 30.0336 38.2239 31.3358 38.2255 32.9372C38.2255 32.9372 38.2255 32.9388 38.2255 32.9396C38.2255 32.9404 38.2255 32.9412 38.2255 32.942C38.2247 34.5434 36.931 35.8456 35.3403 35.8456ZM40.8611 31.8624H40.2479C39.756 29.5884 37.743 27.8792 35.3395 27.8792C32.936 27.8792 30.9231 29.5876 30.4311 31.8624H15.2037C14.7117 29.5884 12.6988 27.8792 10.2961 27.8792C7.89337 27.8792 5.87962 29.5876 5.38768 31.8624H2.13891V27.3789H40.8611V31.8624Z" fill="white"/>
<path d="M33.5934 12.4283C33.3953 12.1283 33.061 11.9487 32.7037 11.9487H28.7491C28.1582 11.9487 27.6797 12.4307 27.6797 13.0259V20.9915C27.6797 21.5868 28.1582 22.0687 28.7491 22.0687H37.9758C38.3703 22.0687 38.7323 21.8501 38.9185 21.4998C39.1046 21.1495 39.084 20.7242 38.8654 20.3939L33.5934 12.4283ZM29.8186 19.9143V14.1031H32.131L35.9771 19.9143H29.8178H29.8186Z" fill="white"/>
</g>
<defs>
<clipPath id="clip0_191_208">
<rect width="43" height="38" fill="white"/>
</clipPath>
</defs>
</svg>
