<svg width="24" height="27" viewBox="0 0 24 27" fill="none" xmlns="http://www.w3.org/2000/svg">
<g clip-path="url(#clip0_326_836)">
<path d="M6.74914 24.9231H2.31567C1.73525 24.9231 1.26309 24.4573 1.26309 23.8846V2.28462C1.26309 1.71198 1.73525 1.24615 2.31567 1.24615H14.9466C15.527 1.24615 15.9992 1.71198 15.9992 2.28462V13.0846C15.9992 13.4288 16.2819 13.7077 16.6307 13.7077C16.9796 13.7077 17.2623 13.4288 17.2623 13.0846V2.28462C17.2623 1.02481 16.2235 0 14.9466 0H2.31567C1.03875 0 0 1.02481 0 2.28462V23.8846C0 25.1444 1.03875 26.1692 2.31567 26.1692H6.74914C7.09799 26.1692 7.38068 25.8903 7.38068 25.5462C7.38068 25.202 7.09799 24.9231 6.74914 24.9231Z" fill="#25AAE1"/>
<path d="M9.89424 2.90771C10.2431 2.90771 10.5258 2.62881 10.5258 2.28464C10.5258 1.94046 10.2431 1.66156 9.89424 1.66156H7.36805C7.0192 1.66156 6.7365 1.94046 6.7365 2.28464C6.7365 2.62881 7.0192 2.90771 7.36805 2.90771H9.89424Z" fill="#25AAE1"/>
<path d="M17.7675 22.0154H12.9678C12.6189 22.0154 12.3362 22.2943 12.3362 22.6385C12.3362 22.9826 12.6189 23.2615 12.9678 23.2615H17.7675C18.1164 23.2615 18.3991 22.9826 18.3991 22.6385C18.3991 22.2943 18.1164 22.0154 17.7675 22.0154Z" fill="#25AAE1"/>
<path d="M11.0815 19.1077H19.6538C20.0026 19.1077 20.2853 18.8288 20.2853 18.4846C20.2853 18.1404 20.0026 17.8615 19.6538 17.8615H11.0815C10.7327 17.8615 10.45 18.1404 10.45 18.4846C10.45 18.8288 10.7327 19.1077 11.0815 19.1077Z" fill="#25AAE1"/>
<path d="M21.1045 19.8198C20.8362 19.5996 20.4381 19.6358 20.2149 19.8999C20.1415 19.9871 20.0616 20.0702 19.9767 20.1474C19.771 20.1551 19.5641 20.1628 19.3572 20.1711C19.0848 20.1818 18.8123 20.1919 18.5434 20.202C18.1952 20.2144 17.9227 20.504 17.9359 20.8476C17.9486 21.1834 18.2289 21.4475 18.5669 21.4475C18.5747 21.4475 18.5825 21.4475 18.5909 21.4475C18.8604 21.4374 19.1335 21.4273 19.4071 21.4167C19.6393 21.4078 19.8709 21.3989 20.1012 21.3905C20.3418 21.3816 20.571 21.2926 20.7472 21.1407C20.9054 21.0048 21.0528 20.8553 21.1863 20.6974C21.4095 20.4328 21.3728 20.04 21.1051 19.8198H21.1045Z" fill="#25AAE1"/>
<path d="M12.7988 20.8476C12.8114 20.504 12.5395 20.2144 12.1913 20.202C11.923 20.1919 11.6505 20.1818 11.3787 20.1711C11.1712 20.1634 10.9637 20.1551 10.7586 20.1474C10.6738 20.0696 10.5938 19.9866 10.5204 19.8999C10.2972 19.6353 9.89905 19.5997 9.6308 19.8198C9.36254 20.04 9.32645 20.4328 9.5496 20.6975C9.68312 20.8553 9.83049 21.0048 9.98867 21.1407C10.1649 21.2926 10.3947 21.3811 10.6353 21.3906C10.865 21.3989 11.0978 21.4078 11.33 21.4173C11.603 21.4279 11.8761 21.438 12.145 21.4481C12.1528 21.4481 12.1606 21.4481 12.169 21.4481C12.507 21.4481 12.7873 21.1841 12.8 20.8482L12.7988 20.8476Z" fill="#25AAE1"/>
<path d="M23.9032 17.3091L23.7799 16.9887C23.7781 16.9845 23.7769 16.9809 23.775 16.9768C23.5651 16.4623 23.0653 16.1638 22.5571 16.2522C22.527 16.2576 22.4957 16.2629 22.4626 16.2683C22.3965 16.2795 22.3249 16.2914 22.2521 16.3056C22.2425 16.3068 22.2335 16.308 22.2244 16.3098C22.0735 16.3353 21.7944 16.4047 21.3577 16.5151L20.8302 15.3621C20.4856 14.6091 19.7289 14.1225 18.9019 14.1225H11.834C11.0076 14.1225 10.2503 14.6091 9.90567 15.3621L9.37818 16.5151C8.94151 16.4047 8.66242 16.3359 8.51085 16.3098C8.50183 16.308 8.49221 16.3068 8.48318 16.3056C8.4098 16.2914 8.33823 16.2795 8.27207 16.2683C8.23899 16.2629 8.20771 16.2576 8.17583 16.2516C7.66999 16.1632 7.16957 16.4617 6.95965 16.9762C6.95785 16.9803 6.95664 16.9839 6.95484 16.9881L6.83274 17.3049C6.60779 17.874 6.78162 18.5315 7.24535 18.868C7.27422 18.8893 7.3055 18.9077 7.33738 18.9237L7.85705 19.1795L7.62187 19.535C7.39091 19.8839 7.26941 20.2898 7.26941 20.7087V23.7873C7.26941 24.2496 7.46669 24.6822 7.80232 24.986V25.8464C7.80232 26.4814 8.325 26.9982 8.96737 26.9982H10.6178C11.2091 26.9982 11.7005 26.5668 11.7738 25.99L11.8941 25.3367H18.8406L18.9609 25.99C19.0336 26.5668 19.5256 26.9982 20.1163 26.9982H21.7667C22.4091 26.9982 22.9318 26.4814 22.9318 25.8464V24.986C23.2674 24.6822 23.4653 24.2502 23.4653 23.7873V20.7087C23.4653 20.2898 23.3432 19.8839 23.1128 19.535L22.8776 19.1789L23.3973 18.9232C23.4298 18.9071 23.4605 18.8887 23.49 18.8674C23.9525 18.5315 24.1263 17.8758 23.9038 17.3073L23.9032 17.3091ZM22.7309 17.8604L21.6795 18.3778C21.5183 18.4573 21.3992 18.6003 21.3523 18.7718C21.3054 18.9433 21.3343 19.1267 21.4329 19.2756L22.0548 20.2168C22.1517 20.3628 22.2022 20.5331 22.2022 20.7099V23.7885C22.2022 23.9564 22.0981 24.071 22.0007 24.1232C21.7962 24.2318 21.6687 24.4424 21.6687 24.6721V25.7539H20.2005L20.1241 25.3385H20.1668C20.5157 25.3385 20.7984 25.0596 20.7984 24.7154C20.7984 24.3712 20.5157 24.0923 20.1668 24.0923H19.4348C19.4126 24.0899 19.3897 24.0882 19.3668 24.0882H11.3673C11.3444 24.0882 11.3215 24.0899 11.2993 24.0923H10.5673C10.2184 24.0923 9.93574 24.3712 9.93574 24.7154C9.93574 25.0596 10.2184 25.3385 10.5673 25.3385H10.61L10.5336 25.7539H9.06541V24.6721C9.06541 24.443 8.9379 24.2324 8.7334 24.1238C8.63596 24.0721 8.53251 23.957 8.53251 23.7897V20.7111C8.53251 20.5348 8.58363 20.3639 8.67987 20.218L9.30179 19.2768C9.40043 19.1279 9.4293 18.9445 9.38239 18.773C9.33547 18.6015 9.21638 18.4579 9.05519 18.379L8.00381 17.861C7.9978 17.8343 7.99599 17.7927 8.01163 17.7536L8.10666 17.5061C8.14095 17.512 8.17703 17.518 8.21372 17.5251C8.25643 17.5364 8.29492 17.5423 8.3268 17.5453C8.47296 17.5743 8.82001 17.6622 9.12917 17.7405C9.28194 17.7791 9.43712 17.8182 9.58148 17.8538C9.878 17.9274 10.1848 17.7808 10.3105 17.5061L11.0563 15.8766C11.197 15.5692 11.502 15.3704 11.8334 15.3704H18.9013C19.2327 15.3704 19.5377 15.5692 19.6784 15.8766L20.4242 17.5061C20.5499 17.7808 20.8573 17.9274 21.1532 17.8538C21.2982 17.8182 21.4546 17.7785 21.6079 17.7399C21.9159 17.6622 22.2617 17.5743 22.4073 17.5453C22.4392 17.5423 22.4777 17.5364 22.5204 17.5251C22.5571 17.5186 22.5926 17.512 22.6274 17.5061L22.7225 17.7536C22.7225 17.7536 22.7237 17.7571 22.7249 17.7589C22.7387 17.7945 22.7369 17.8348 22.7309 17.861V17.8604Z" fill="#25AAE1"/>
<path d="M3.61365 9.89152C3.36705 10.1348 3.36705 10.5294 3.61365 10.7727L6.84537 13.9611C6.96386 14.078 7.12446 14.1439 7.29167 14.1439C7.45888 14.1439 7.62007 14.078 7.73796 13.9611L14.202 7.58376C14.4486 7.34047 14.4486 6.94585 14.202 6.70255C13.9554 6.45926 13.5554 6.45926 13.3088 6.70255L7.29167 12.639L4.50624 9.89093C4.25964 9.64763 3.85966 9.64763 3.61305 9.89093L3.61365 9.89152Z" fill="#25AAE1"/>
</g>
<defs>
<clipPath id="clip0_326_836">
<rect width="24" height="27" fill="white"/>
</clipPath>
</defs>
</svg>
