<svg width="39" height="30" viewBox="0 0 39 30" fill="none" xmlns="http://www.w3.org/2000/svg">
<g clip-path="url(#clip0_191_211)">
<path d="M24.9422 18.4802H14.0574C13.3074 18.4802 12.7002 19.0988 12.7002 19.8629C12.7002 20.6269 13.3074 21.2455 14.0574 21.2455H24.9422C25.6922 21.2455 26.2994 20.6269 26.2994 19.8629C26.2994 19.0988 25.6922 18.4802 24.9422 18.4802Z" fill="white"/>
<path d="M9.78103 11.5189H29.2202C29.9702 11.5189 30.5774 10.9003 30.5774 10.1363C30.5774 9.37226 29.9702 8.75366 29.2202 8.75366H9.78103C9.03105 8.75366 8.42383 9.37226 8.42383 10.1363C8.42383 10.9003 9.03105 11.5189 9.78103 11.5189Z" fill="white"/>
<path d="M32.4624 13.3214C31.8863 12.8329 31.0308 12.9128 30.5512 13.4996C30.3763 13.7137 30.1863 13.9165 29.9842 14.1059C29.5228 14.1233 29.0573 14.1418 28.5918 14.1612C27.9605 14.1868 27.3291 14.2114 26.7068 14.235C25.9578 14.2637 25.3727 14.9048 25.4009 15.6678C25.428 16.4134 26.0302 16.9992 26.7561 16.9992C26.7732 16.9992 26.7903 16.9992 26.8073 16.9992C27.4317 16.9757 28.065 16.9501 28.6984 16.9255C29.2111 16.905 29.7238 16.8845 30.2305 16.8651C30.7583 16.8446 31.263 16.6438 31.65 16.2997C32.0049 15.9843 32.3377 15.6371 32.6373 15.2704C33.1168 14.6836 33.0384 13.812 32.4624 13.3235V13.3214Z" fill="white"/>
<path d="M13.6003 15.6668C13.6274 14.9038 13.0433 14.2627 12.2944 14.234C11.6721 14.2104 11.0407 14.1859 10.4094 14.1603C9.94388 14.1418 9.47942 14.1234 9.01696 14.105C8.81489 13.9155 8.62488 13.7117 8.44995 13.4987C7.97041 12.9118 7.11486 12.8319 6.53881 13.3204C5.96275 13.809 5.88433 14.6805 6.36388 15.2674C6.66347 15.634 6.99623 15.9812 7.35212 16.2977C7.73918 16.6418 8.24386 16.8426 8.77065 16.8631C9.27835 16.8825 9.79107 16.903 10.3038 16.9235C10.9372 16.9491 11.5705 16.9737 12.1948 16.9972C12.2119 16.9972 12.229 16.9972 12.2461 16.9972C12.973 16.9972 13.5741 16.4114 13.6013 15.6658L13.6003 15.6668Z" fill="white"/>
<path d="M38.7853 7.4109L38.5059 6.6612C38.5028 6.65301 38.4988 6.64379 38.4958 6.6356C38.0334 5.46497 36.9335 4.78595 35.8156 4.98669C35.7472 4.99898 35.6748 5.01127 35.5994 5.02458C35.4486 5.05018 35.2878 5.07886 35.1219 5.11163C35.1008 5.11471 35.0807 5.11778 35.0596 5.12085C34.7127 5.1823 34.0623 5.34924 33.0388 5.61553L31.8164 2.85744C31.0473 1.12147 29.3573 0 27.5125 0H11.4865C9.64066 0 7.95169 1.12147 7.18261 2.85744L5.96012 5.61553C4.93669 5.34822 4.28624 5.18128 3.93839 5.11983C3.91828 5.11676 3.89818 5.11368 3.87707 5.11061C3.71018 5.07784 3.54933 5.04916 3.39853 5.02356C3.32313 5.01024 3.25074 4.99795 3.17735 4.98464C2.06444 4.78595 0.965612 5.46395 0.502153 6.63458C0.499137 6.64277 0.495115 6.65199 0.492099 6.66018L0.212616 7.40987C-0.281004 8.70954 0.102029 10.2079 1.12446 10.975C1.18679 11.0221 1.25314 11.0631 1.32251 11.0989L2.57616 11.737L1.99709 12.6413C1.48135 13.4463 1.2089 14.3824 1.2089 15.3482V22.5574C1.2089 23.6307 1.65728 24.6323 2.41832 25.3298V27.3791C2.41832 28.8242 3.56943 30 4.98495 30H8.72781C10.0307 30 11.1145 29.0178 11.2743 27.7038L11.5578 26.1092H27.4351L27.7196 27.7038C27.8795 29.0168 28.9632 29.999 30.2661 29.999H34.009C35.4245 29.999 36.5756 28.8232 36.5756 27.3781V25.3298C37.3367 24.6323 37.785 23.6297 37.785 22.5563V15.3472C37.785 14.3814 37.5126 13.4453 36.9979 12.6403L36.4188 11.736L37.6724 11.0989C37.7418 11.0631 37.8082 11.0221 37.8705 10.975C38.8939 10.2079 39.277 8.70954 38.7823 7.40987L38.7853 7.4109ZM36.2599 8.72798L33.8471 9.95494C33.5013 10.1311 33.2449 10.4496 33.1434 10.8296C33.0419 11.2106 33.1052 11.6161 33.3163 11.9469L34.7268 14.151C34.954 14.5053 35.0736 14.9191 35.0736 15.3472V22.5563C35.0736 22.9127 34.8836 23.2384 34.578 23.4064C34.1387 23.6471 33.8642 24.1151 33.8642 24.6241V27.2337H30.3968L30.1968 26.1082H30.3838C31.1337 26.1082 31.741 25.4896 31.741 24.7255C31.741 23.9615 31.1337 23.3429 30.3838 23.3429H28.7189C28.6697 23.3378 28.6204 23.3337 28.5691 23.3337H10.4298C10.3796 23.3337 10.3293 23.3378 10.2801 23.3429H8.61521C7.86523 23.3429 7.25801 23.9615 7.25801 24.7255C7.25801 25.4896 7.86523 26.1082 8.61521 26.1082H8.80221L8.60214 27.2337H5.13575V24.6241C5.13575 24.1161 4.8623 23.6481 4.42196 23.4074C4.11634 23.2395 3.92633 22.9138 3.92633 22.5574V15.3482C3.92633 14.9201 4.04596 14.5063 4.27317 14.152L5.68365 11.948C5.89477 11.6172 5.95811 11.2116 5.85657 10.8306C5.75503 10.4496 5.49867 10.1321 5.15284 9.95596L2.73903 8.729C2.71389 8.65629 2.70082 8.52519 2.74506 8.40946C2.74606 8.40537 2.74807 8.40127 2.74908 8.39717L2.98734 7.75809C3.08587 7.7755 3.18841 7.79291 3.29498 7.8134C3.38948 7.839 3.47493 7.85231 3.5453 7.85948C3.87707 7.92708 4.66927 8.13396 5.37401 8.31831C5.71985 8.40844 6.07171 8.50061 6.39744 8.58357C7.03382 8.74539 7.69433 8.42073 7.96476 7.81135L9.65574 3.99631C9.98649 3.24867 10.7053 2.76628 11.4854 2.76628H27.5135C28.2937 2.76628 29.0125 3.24867 29.3432 3.99631L31.0342 7.81135C31.3046 8.42073 31.9641 8.74642 32.6015 8.58357C32.9293 8.49959 33.2821 8.40741 33.63 8.31729C34.3327 8.13396 35.1229 7.92708 35.4537 7.85948C35.524 7.85334 35.6095 7.84002 35.704 7.8134C35.8096 7.79291 35.9131 7.77448 36.0116 7.75809L36.2499 8.39717C36.2499 8.39717 36.2529 8.40537 36.2539 8.40946C36.2981 8.52519 36.2851 8.65629 36.2599 8.729V8.72798Z" fill="white"/>
</g>
<defs>
<clipPath id="clip0_191_211">
<rect width="39" height="30" fill="white"/>
</clipPath>
</defs>
</svg>
