<svg width="32" height="25" viewBox="0 0 32 25" fill="none" xmlns="http://www.w3.org/2000/svg">
<g clip-path="url(#clip0_326_851)">
<path d="M24.4398 9.91174C20.2718 9.91174 16.8813 13.2959 16.8813 17.4561C16.8813 21.6164 20.2718 25.0005 24.4398 25.0005C28.6078 25.0005 31.9983 21.6164 31.9983 17.4561C31.9983 13.2959 28.6078 9.91174 24.4398 9.91174ZM24.4398 23.788C20.9417 23.788 18.0961 20.9477 18.0961 17.4561C18.0961 13.9646 20.9417 11.1243 24.4398 11.1243C27.9379 11.1243 30.7835 13.9646 30.7835 17.4561C30.7835 20.9477 27.9379 23.788 24.4398 23.788Z" fill="#25AAE1"/>
<path d="M16.0145 19.823H3.16001C2.3617 19.823 1.71206 19.1589 1.71206 18.3431V13.0303C1.71206 12.5257 1.85611 12.0413 2.12915 11.6278L4.55936 7.92491C4.66754 7.76324 4.76241 7.59175 4.84051 7.41795L6.99594 2.67397C7.39683 1.78592 8.27901 1.21256 9.24219 1.21256H22.7619C23.7228 1.21256 24.6021 1.7865 25.0041 2.6757L27.159 7.41853C27.1607 7.42315 27.163 7.42719 27.1654 7.43181C27.2365 7.57963 27.325 7.75342 27.4378 7.92203L29.1808 10.5735C29.3648 10.8535 29.7414 10.9315 30.0219 10.7479C30.3025 10.5642 30.3806 10.1884 30.1966 9.90831L28.4513 7.25339C28.379 7.14484 28.3154 7.02012 28.2627 6.91156L27.9504 6.22445C28.3703 6.17479 28.8083 6.12052 29.201 6.06971C29.2057 6.06913 29.2103 6.06855 29.2149 6.06797H29.2201C29.2381 6.06566 29.2664 6.06335 29.3005 6.057C29.4579 6.03448 29.6106 6.01601 29.7587 5.99811C29.8223 5.9906 29.8842 5.98309 29.9438 5.97559C29.9461 5.97559 29.949 5.97501 29.9513 5.97443C30.1631 5.94498 30.369 6.04488 30.461 6.2181L30.7363 6.74816C30.8416 6.94621 30.7682 7.1714 30.5628 7.28803L30.2996 7.41449C29.9976 7.55999 29.8704 7.92203 30.0161 8.22401C30.1208 8.44054 30.3378 8.56699 30.564 8.56699C30.6525 8.56699 30.7421 8.54794 30.8272 8.50694L31.1054 8.37298C31.1135 8.36894 31.1216 8.3649 31.1297 8.36028C31.9315 7.92896 32.23 6.97104 31.8123 6.18461L31.5364 5.65397C31.2043 5.02922 30.5021 4.67527 29.7888 4.77227C29.7327 4.7792 29.6742 4.78613 29.6135 4.79363C29.4619 4.81153 29.2907 4.83232 29.1143 4.85773C29.1108 4.85773 29.1073 4.85888 29.1039 4.85946C29.0825 4.86177 29.0599 4.86408 29.0362 4.86754C28.5277 4.93337 27.9428 5.00439 27.4228 5.06444L26.1102 2.17625C25.5138 0.853985 24.1989 0 22.7614 0H9.24161C7.80119 0 6.48456 0.853985 5.88814 2.17452L4.57498 5.06444C4.0555 5.00497 3.47065 4.93337 2.96159 4.86754C2.93787 4.86408 2.91531 4.86177 2.89391 4.85946C2.89044 4.85946 2.88696 4.8583 2.88349 4.85773C2.70706 4.83232 2.53582 4.81153 2.38426 4.79363C2.32352 4.78671 2.26509 4.7792 2.20898 4.77227C1.49571 4.67584 0.794009 5.02979 0.459067 5.65917L0.188336 6.17999C-0.231643 6.97104 0.0668547 7.92896 0.868634 8.36028C0.876732 8.3649 0.884831 8.36894 0.89293 8.37298L1.17118 8.50694C1.25622 8.54794 1.34588 8.56699 1.43439 8.56699C1.66058 8.56699 1.87751 8.44054 1.98222 8.22401C2.12799 7.9226 2.00131 7.55999 1.69876 7.41449L1.43555 7.28803C1.22961 7.1714 1.15672 6.94621 1.26432 6.74354L1.53447 6.22329C1.62934 6.04545 1.83528 5.94556 2.04701 5.97443C2.04932 5.97443 2.05221 5.97501 2.05453 5.97559C2.11353 5.98309 2.17543 5.9906 2.23964 5.99811C2.38773 6.01601 2.54045 6.03391 2.6978 6.057C2.73193 6.06278 2.76028 6.06566 2.77821 6.0674H2.78342C2.78804 6.06855 2.79267 6.06913 2.7973 6.06971C3.19009 6.12052 3.628 6.17422 4.04798 6.22445L3.73155 6.92023C3.68064 7.0334 3.61701 7.14888 3.54412 7.25743L1.11218 10.9627C0.708393 11.573 0.495511 12.2878 0.495511 13.0309V18.3437C0.495511 19.8282 1.69008 21.0361 3.15827 21.0361H16.0128C16.3483 21.0361 16.6202 20.7647 16.6202 20.4298C16.6202 20.0949 16.3483 19.8235 16.0128 19.8235L16.0145 19.823Z" fill="#25AAE1"/>
<path d="M11.2828 16.8493C10.9472 16.8493 10.6753 17.1207 10.6753 17.4556C10.6753 17.7905 10.9472 18.0619 11.2828 18.0619H15.5028C15.8383 18.0619 16.1102 17.7905 16.1102 17.4556C16.1102 17.1207 15.8383 16.8493 15.5028 16.8493H11.2828Z" fill="#25AAE1"/>
<path d="M26.8098 8.53523C26.8098 8.20034 26.538 7.92896 26.2024 7.92896H5.80162C5.4661 7.92896 5.19421 8.20034 5.19421 8.53523C5.19421 8.87013 5.4661 9.14151 5.80162 9.14151H26.203C26.5385 9.14151 26.8104 8.87013 26.8104 8.53523H26.8098Z" fill="#25AAE1"/>
<path d="M6.76479 21.8052C6.42927 21.8052 6.15738 22.0766 6.15738 22.4115V22.7966H2.75474V22.2827C2.75474 21.9478 2.48285 21.6765 2.14733 21.6765C1.81181 21.6765 1.53992 21.9478 1.53992 22.2827V22.8827C1.53992 23.5039 2.04205 24.0092 2.65871 24.0092H6.25341C6.87008 24.0092 7.3722 23.5039 7.3722 22.8827V22.4121C7.3722 22.0772 7.10031 21.8058 6.76479 21.8058V21.8052Z" fill="#25AAE1"/>
<path d="M7.157 13.2931C6.62422 13.2682 6.09086 13.2434 5.5627 13.2197C5.49444 13.2168 5.43197 13.1874 5.38222 13.1354C5.09471 12.8346 4.82571 12.5049 4.58275 12.155C4.39127 11.8801 4.01294 11.8114 3.73759 12.0026C3.46223 12.1931 3.39339 12.5713 3.58487 12.8462C3.86369 13.2474 4.17318 13.6268 4.50408 13.9727C4.77076 14.2516 5.1271 14.4144 5.5089 14.4317C6.03648 14.4554 6.56869 14.4802 7.10089 14.505C7.74417 14.5351 8.38744 14.5651 9.02204 14.5934C9.03129 14.5934 9.04055 14.594 9.04923 14.594C9.37202 14.594 9.64102 14.3399 9.65548 14.0142C9.67052 13.6799 9.41078 13.3964 9.07584 13.382C8.4424 13.3537 7.7997 13.3237 7.15758 13.2936L7.157 13.2931Z" fill="#25AAE1"/>
<path d="M27.1026 20.099H23.6721C23.922 19.7699 24.0725 19.4477 24.1372 19.1128C24.2072 18.7531 24.1702 18.4135 24.0846 18.0781H25.9456C26.2649 18.0781 26.5241 17.8194 26.5241 17.5007C26.5241 17.1819 26.2649 16.9232 25.9456 16.9232H23.6837C23.6374 16.7945 23.5912 16.6611 23.5478 16.5214C23.3314 15.825 23.3557 15.2245 23.6149 14.8735C23.844 14.5634 24.2223 14.4981 24.4994 14.4981C25.3717 14.4981 25.6644 14.9982 25.7067 15.0807C25.7211 15.1165 25.7315 15.1316 25.7535 15.165L25.8692 15.3383C26.0462 15.6039 26.4055 15.6755 26.6716 15.4982C26.9377 15.3215 27.0094 14.9629 26.8318 14.6973L26.7346 14.5518C26.5987 14.2955 25.9936 13.3433 24.4994 13.3433C23.7306 13.3433 23.0856 13.6436 22.6835 14.1886C22.197 14.848 22.1114 15.7979 22.4429 16.8638C22.4492 16.884 22.4556 16.9036 22.4625 16.9238H21.8384C21.519 16.9238 21.2599 17.1825 21.2599 17.5012C21.2599 17.82 21.519 18.0786 21.8384 18.0786H22.8773C22.9872 18.3979 23.0474 18.6584 23.0017 18.8939C22.9294 19.2658 22.5759 19.6873 21.8887 20.2208C21.6937 20.3721 21.6162 20.6308 21.6966 20.8641C21.777 21.0973 21.9969 21.2538 22.2439 21.2538H27.1031C27.4225 21.2538 27.6816 20.9951 27.6816 20.6764C27.6816 20.3577 27.4225 20.099 27.1031 20.099H27.1026Z" fill="#25AAE1"/>
</g>
<defs>
<clipPath id="clip0_326_851">
<rect width="32" height="25" fill="white"/>
</clipPath>
</defs>
</svg>
