<svg width="37" height="35" viewBox="0 0 37 35" fill="none" xmlns="http://www.w3.org/2000/svg">
<g clip-path="url(#clip0_819_851)">
<path d="M-29.1875 9.41406C-24.7578 9.41406 -21.1016 13.0703 -21.1016 17.5C-21.1016 22 -24.7578 25.5859 -29.1875 25.5859C-33.6875 25.5859 -37.2734 22 -37.2734 17.5C-37.2734 13.0703 -33.6875 9.41406 -29.1875 9.41406ZM-29.1875 22.7734C-26.3047 22.7734 -23.9844 20.4531 -23.9844 17.5C-23.9844 14.6172 -26.3047 12.2969 -29.1875 12.2969C-32.1406 12.2969 -34.4609 14.6172 -34.4609 17.5C-34.4609 20.4531 -32.0703 22.7734 -29.1875 22.7734ZM-18.9219 9.13281C-18.9219 10.1875 -19.7656 11.0312 -20.8203 11.0312C-21.875 11.0312 -22.7188 10.1875 -22.7188 9.13281C-22.7188 8.07812 -21.875 7.23438 -20.8203 7.23438C-19.7656 7.23438 -18.9219 8.07812 -18.9219 9.13281ZM-13.5781 11.0312C-13.4375 13.6328 -13.4375 21.4375 -13.5781 24.0391C-13.7188 26.5703 -14.2812 28.75 -16.1094 30.6484C-17.9375 32.4766 -20.1875 33.0391 -22.7188 33.1797C-25.3203 33.3203 -33.125 33.3203 -35.7266 33.1797C-38.2578 33.0391 -40.4375 32.4766 -42.3359 30.6484C-44.1641 28.75 -44.7266 26.5703 -44.8672 24.0391C-45.0078 21.4375 -45.0078 13.6328 -44.8672 11.0312C-44.7266 8.5 -44.1641 6.25 -42.3359 4.42188C-40.4375 2.59375 -38.2578 2.03125 -35.7266 1.89062C-33.125 1.75 -25.3203 1.75 -22.7188 1.89062C-20.1875 2.03125 -17.9375 2.59375 -16.1094 4.42188C-14.2812 6.25 -13.7188 8.5 -13.5781 11.0312ZM-16.9531 26.7812C-16.1094 24.7422 -16.3203 19.8203 -16.3203 17.5C-16.3203 15.25 -16.1094 10.3281 -16.9531 8.21875C-17.5156 6.88281 -18.5703 5.75781 -19.9062 5.26562C-22.0156 4.42188 -26.9375 4.63281 -29.1875 4.63281C-31.5078 4.63281 -36.4297 4.42188 -38.4688 5.26562C-39.875 5.82812 -40.9297 6.88281 -41.4922 8.21875C-42.3359 10.3281 -42.125 15.25 -42.125 17.5C-42.125 19.8203 -42.3359 24.7422 -41.4922 26.7812C-40.9297 28.1875 -39.875 29.2422 -38.4688 29.8047C-36.4297 30.6484 -31.5078 30.4375 -29.1875 30.4375C-26.9375 30.4375 -22.0156 30.6484 -19.9062 29.8047C-18.5703 29.2422 -17.4453 28.1875 -16.9531 26.7812ZM36.0625 17.5C36.0625 26.2188 29.6641 33.4609 21.2969 34.7266V22.5625H25.375L26.1484 17.5H21.2969V14.2656C21.2969 12.8594 22 11.5234 24.1797 11.5234H26.3594V7.23438C26.3594 7.23438 24.3906 6.88281 22.4219 6.88281C18.4844 6.88281 15.8828 9.34375 15.8828 13.7031V17.5H11.4531V22.5625H15.8828V34.7266C7.5156 33.4609 1.1875 26.2188 1.1875 17.5C1.1875 7.86719 8.9922 0.0625 18.625 0.0625C28.2578 0.0625 36.0625 7.86719 36.0625 17.5Z" fill="#25AAE1"/>
</g>
<defs>
<clipPath id="clip0_819_851">
<rect width="37" height="35" fill="white"/>
</clipPath>
</defs>
</svg>
