<svg width="100" height="100" viewBox="0 0 100 100" fill="none" xmlns="http://www.w3.org/2000/svg">
<g clip-path="url(#clip0_888_587)">
<path d="M0 99.9998V-0.000244141H100L0 99.9998Z" fill="#2BB673"/>
<path d="M9.63648 53.8012L9.76518 53.7121L14.9228 58.8697L13.4429 60.3497L6.90918 53.816L8.92868 51.7965L16.7245 54.2962L16.6354 54.4248L11.4679 49.2573L12.9479 47.7773L19.4816 54.311L17.4522 56.3404L9.63648 53.8012ZM18.6565 48.5925C19.0294 48.9654 19.4435 49.2277 19.8989 49.3795C20.3543 49.5247 20.8063 49.5511 21.2551 49.4587C21.7072 49.363 22.1131 49.1353 22.4727 48.7756C22.8324 48.416 23.0585 48.0117 23.1509 47.5629C23.2466 47.1109 23.2202 46.6588 23.0717 46.2067C22.9232 45.748 22.6625 45.3323 22.2896 44.9594C21.9167 44.5865 21.5026 44.3275 21.0472 44.1823C20.5951 44.0338 20.1431 44.0074 19.691 44.1031C19.2389 44.1922 18.833 44.4166 18.4734 44.7762C18.1137 45.1359 17.8876 45.5435 17.7952 45.9988C17.7028 46.4476 17.7292 46.8997 17.8744 47.3551C18.0229 47.8071 18.2836 48.2196 18.6565 48.5925ZM17.1171 50.1319C16.6419 49.6567 16.2839 49.1304 16.043 48.5529C15.7988 47.9721 15.6751 47.3765 15.6718 46.766C15.6685 46.1556 15.7856 45.56 16.0232 44.9792C16.2608 44.3984 16.6172 43.8704 17.0924 43.3953C17.5741 42.9135 18.1038 42.5555 18.6812 42.3212C19.262 42.0836 19.856 41.9681 20.4631 41.9747C21.0736 41.978 21.6676 42.1034 22.2451 42.3509C22.8225 42.5918 23.3489 42.9498 23.824 43.425C24.3025 43.9034 24.6671 44.4298 24.9179 45.0039C25.1654 45.5748 25.2941 46.1655 25.304 46.7759C25.3106 47.3831 25.1951 47.9771 24.9575 48.5578C24.7199 49.1386 24.3553 49.6748 23.8636 50.1665C23.3621 50.6681 22.8192 51.0393 22.2352 51.2802C21.6544 51.5178 21.0621 51.6316 20.4582 51.6217C19.851 51.6085 19.262 51.4782 18.6911 51.2307C18.1203 50.9766 17.5956 50.6103 17.1171 50.1319ZM26.1488 34.5764L27.6189 33.1064L36.7313 37.0612L35.1524 38.6402L33.3655 37.8037L30.851 40.3181L31.6826 42.1099L30.0987 43.6939L26.1488 34.5764ZM30.0492 38.5263L31.5787 36.9969L28.6781 35.6109L28.6633 35.6258L30.0492 38.5263ZM30.735 29.9902L32.7001 28.0251C33.3963 27.3289 34.1124 26.8933 34.8483 26.7184C35.5841 26.5369 36.3117 26.5782 37.0311 26.8421C37.7505 27.1061 38.4269 27.5549 39.0605 28.1885C39.6974 28.8253 40.1478 29.5035 40.4118 30.2228C40.6758 30.9422 40.7187 31.6714 40.5405 32.4106C40.3656 33.1465 39.93 33.8625 39.2337 34.5588L37.2687 36.5238L30.735 29.9902ZM33.5217 29.8268L37.432 33.7371L37.7884 33.3808C38.1613 33.0079 38.3857 32.6152 38.4616 32.2027C38.5342 31.7869 38.4847 31.3712 38.3131 30.9554C38.1415 30.533 37.8709 30.137 37.5013 29.7674C37.1285 29.3946 36.7341 29.1223 36.3183 28.9507C35.9026 28.7725 35.4851 28.7214 35.0661 28.7973C34.647 28.8732 34.251 29.0976 33.8781 29.4705L33.5217 29.8268ZM43.625 17.1002L50.1587 23.6339L48.6837 25.1089L44.8377 21.2629L43.8082 20.1047L44.808 21.6094L46.8721 25.8711L45.4218 27.3214L41.165 25.2524L39.6652 24.2476L40.8235 25.2772L44.6694 29.1231L43.1894 30.6031L36.6558 24.0694L38.7347 21.9905L44.412 25.0346L45.0209 25.4653L44.5902 24.8564L41.5461 19.1791L43.625 17.1002ZM44.8601 15.8651L46.3401 14.3851L52.8738 20.9188L51.3938 22.3987L44.8601 15.8651ZM50.2109 13.2268L50.3396 13.1377L55.4972 18.2953L54.0173 19.7753L47.4836 13.2416L49.5031 11.2221L57.2989 13.7218L57.2098 13.8504L52.0423 8.68288L53.5223 7.20288L60.0559 13.7366L58.0265 15.766L50.2109 13.2268ZM29.5693 49.5407L33.346 45.764L34.6428 47.0609L32.3461 49.3576L33.6627 50.6742L35.7862 48.5507L37.0781 49.8426L34.9546 51.9661L37.5829 54.5944L36.103 56.0744L29.5693 49.5407ZM34.2861 44.8239L38.4587 40.6513L39.7556 41.9481L37.058 44.6457L38.3894 45.9772L41.0623 43.3043L42.3195 44.5616L39.6467 47.2344L40.998 48.5857L43.6956 45.8881L44.9924 47.1849L40.8198 51.3576L34.2861 44.8239ZM39.5742 39.5358L43.7468 35.3631L45.0437 36.66L42.3461 39.3576L43.6776 40.6891L46.3504 38.0162L47.6077 39.2734L44.9348 41.9463L46.2861 43.2976L48.9837 40.6L50.2805 41.8968L46.1079 46.0694L39.5742 39.5358ZM47.1244 31.748C47.5302 31.3422 47.9295 31.032 48.3222 30.8175C48.7149 30.603 49.0531 30.4529 49.3369 30.3671C49.6207 30.2813 49.7989 30.2351 49.8715 30.2285L50.3516 32.1341C50.2592 32.1473 50.1107 32.1803 49.9061 32.2331C49.7048 32.2826 49.487 32.3651 49.2527 32.4806C49.0218 32.5928 48.8122 32.7429 48.6241 32.931C48.37 33.1851 48.21 33.4376 48.144 33.6883C48.078 33.9325 48.1341 34.1437 48.3123 34.3219C48.4344 34.444 48.5862 34.5133 48.7677 34.5298C48.9492 34.5397 49.1702 34.5034 49.4309 34.4209C49.6916 34.3318 50.0068 34.2048 50.3763 34.0398C50.7096 33.8847 51.0446 33.7609 51.3811 33.6685C51.7177 33.5762 52.051 33.5333 52.381 33.5399C52.711 33.5399 53.0327 33.6009 53.3462 33.723C53.6597 33.8451 53.955 34.0447 54.2322 34.3219C54.5622 34.6519 54.7816 35.0066 54.8905 35.3861C54.9961 35.7623 55.011 36.1467 54.9351 36.5394C54.8625 36.9288 54.7156 37.3099 54.4945 37.6828C54.28 38.0557 54.0144 38.4005 53.6976 38.7173C53.2488 39.1661 52.7951 39.5175 52.3364 39.7716C51.8811 40.0224 51.4851 40.1973 51.1485 40.2963C50.8119 40.3953 50.6024 40.4464 50.5199 40.4497L50.015 38.4698C50.0843 38.4599 50.208 38.4319 50.3862 38.3857C50.5677 38.3362 50.7773 38.2652 51.0149 38.1728C51.2491 38.0771 51.4834 37.9616 51.7177 37.8263C51.9553 37.6877 52.1648 37.5277 52.3463 37.3462C52.6499 37.0426 52.8199 36.7572 52.8562 36.4899C52.8892 36.2193 52.81 35.9883 52.6186 35.7969C52.4767 35.655 52.3018 35.5759 52.0939 35.5594C51.886 35.5429 51.6369 35.5808 51.3465 35.6732C51.0528 35.7623 50.7063 35.8943 50.307 36.0692C49.9045 36.2408 49.4953 36.3695 49.0795 36.4553C48.667 36.5378 48.2595 36.5328 47.8569 36.4404C47.4543 36.348 47.0699 36.1187 46.7036 35.7524C46.3373 35.3861 46.1229 34.967 46.0602 34.4952C45.9975 34.0167 46.0618 33.5366 46.2532 33.0548C46.4479 32.5697 46.7383 32.1341 47.1244 31.748Z" fill="white"/>
</g>
<defs>
<clipPath id="clip0_888_587">
<rect width="100" height="100" fill="white"/>
</clipPath>
</defs>
</svg>
