<svg width="33" height="35" viewBox="0 0 33 35" fill="none" xmlns="http://www.w3.org/2000/svg">
<g clip-path="url(#clip0_819_849)">
<path d="M15.8125 9.41406C20.2422 9.41406 23.8984 13.0703 23.8984 17.5C23.8984 22 20.2422 25.5859 15.8125 25.5859C11.3125 25.5859 7.72656 22 7.72656 17.5C7.72656 13.0703 11.3125 9.41406 15.8125 9.41406ZM15.8125 22.7734C18.6953 22.7734 21.0156 20.4531 21.0156 17.5C21.0156 14.6172 18.6953 12.2969 15.8125 12.2969C12.8594 12.2969 10.5391 14.6172 10.5391 17.5C10.5391 20.4531 12.9297 22.7734 15.8125 22.7734ZM26.0781 9.13281C26.0781 10.1875 25.2344 11.0312 24.1797 11.0312C23.125 11.0312 22.2812 10.1875 22.2812 9.13281C22.2812 8.07812 23.125 7.23438 24.1797 7.23438C25.2344 7.23438 26.0781 8.07812 26.0781 9.13281ZM31.4219 11.0312C31.5625 13.6328 31.5625 21.4375 31.4219 24.0391C31.2812 26.5703 30.7188 28.75 28.8906 30.6484C27.0625 32.4766 24.8125 33.0391 22.2812 33.1797C19.6797 33.3203 11.875 33.3203 9.27344 33.1797C6.74219 33.0391 4.5625 32.4766 2.66406 30.6484C0.835938 28.75 0.273438 26.5703 0.132812 24.0391C-0.00781237 21.4375 -0.00781237 13.6328 0.132812 11.0312C0.273438 8.5 0.835938 6.25 2.66406 4.42188C4.5625 2.59375 6.74219 2.03125 9.27344 1.89062C11.875 1.75 19.6797 1.75 22.2812 1.89062C24.8125 2.03125 27.0625 2.59375 28.8906 4.42188C30.7188 6.25 31.2812 8.5 31.4219 11.0312ZM28.0469 26.7812C28.8906 24.7422 28.6797 19.8203 28.6797 17.5C28.6797 15.25 28.8906 10.3281 28.0469 8.21875C27.4844 6.88281 26.4297 5.75781 25.0938 5.26562C22.9844 4.42188 18.0625 4.63281 15.8125 4.63281C13.4922 4.63281 8.57031 4.42188 6.53125 5.26562C5.125 5.82812 4.07031 6.88281 3.50781 8.21875C2.66406 10.3281 2.875 15.25 2.875 17.5C2.875 19.8203 2.66406 24.7422 3.50781 26.7812C4.07031 28.1875 5.125 29.2422 6.53125 29.8047C8.57031 30.6484 13.4922 30.4375 15.8125 30.4375C18.0625 30.4375 22.9844 30.6484 25.0938 29.8047C26.4297 29.2422 27.5547 28.1875 28.0469 26.7812ZM81.0625 17.5C81.0625 26.2188 74.6641 33.4609 66.2969 34.7266V22.5625H70.375L71.1484 17.5H66.2969V14.2656C66.2969 12.8594 67 11.5234 69.1797 11.5234H71.3594V7.23438C71.3594 7.23438 69.3906 6.88281 67.4219 6.88281C63.4844 6.88281 60.8828 9.34375 60.8828 13.7031V17.5H56.4531V22.5625H60.8828V34.7266C52.5156 33.4609 46.1875 26.2188 46.1875 17.5C46.1875 7.86719 53.9922 0.0625 63.625 0.0625C73.2578 0.0625 81.0625 7.86719 81.0625 17.5Z" fill="#25AAE1"/>
</g>
<defs>
<clipPath id="clip0_819_849">
<rect width="33" height="35" fill="white"/>
</clipPath>
</defs>
</svg>
