<svg width="198" height="90" viewBox="0 0 198 90" fill="none" xmlns="http://www.w3.org/2000/svg">
<g clip-path="url(#clip0_456_474)">
<path d="M196.765 47.4107L183.412 26.2929C181.917 23.9143 179.35 22.5321 176.523 22.5321H172.007V20.925C172.007 18.2571 169.83 16.1036 167.134 16.1036C164.437 16.1036 162.26 18.2571 162.26 20.925V22.5321H157.386C156.476 22.5321 155.762 23.2393 155.762 24.1393V61.1036H151.993L145.917 46.0286C145.917 46.0286 145.787 45.9 145.754 45.8357C145.722 45.7714 145.689 45.6429 145.624 45.5786L107.967 2.08929C106.798 0.739286 105.141 0 103.354 0C100.007 0 97.2779 2.7 97.2779 6.01071V32.1429H95.6534C94.7436 32.1429 94.0288 32.85 94.0288 33.75V43.3929C94.0288 44.2929 94.7436 45 95.6534 45H97.2779V46.6071C97.2779 47.5071 97.9927 48.2143 98.9025 48.2143C99.8122 48.2143 100.527 48.9214 100.527 49.8214C100.527 50.7214 99.8122 51.4286 98.9025 51.4286C97.9927 51.4286 97.2779 50.7214 97.2779 49.8214C97.2779 48.9214 96.5631 48.2143 95.6534 48.2143C95.6534 48.2143 95.6534 48.2143 95.6209 48.2143C94.0288 46.1893 91.527 43.2964 88.4079 42.0429C81.4223 39.1821 67.8086 43.1357 64.9169 44.0357C57.5415 41.1107 47.4368 40.725 44.4801 40.6607C43.6678 40.6607 42.888 40.7893 42.1408 41.0786L19.1047 49.8857C18.4223 50.1429 17.805 50.5286 17.2852 50.9786C12.2166 55.4143 8.25266 61.5857 7.21295 63.3214L3.15158 64.8643C0.649775 65.8286 -0.617373 68.625 0.357356 71.1L1.23461 73.35C0.227392 74.5393 -0.0650263 76.2107 0.519811 77.6893L3.57396 85.5322C4.35375 87.525 6.53064 88.6822 8.64256 88.2L12.2491 87.3964C13.0613 87.2036 13.5487 86.4321 13.3537 85.6286C13.1588 84.825 12.379 84.3429 11.5667 84.5357L7.96025 85.3393C7.27793 85.5 6.56313 85.1143 6.3357 84.4714L3.28154 76.6286C3.0866 76.0821 3.21656 75.4714 3.63894 75.0857L3.93136 74.7964C4.38624 74.3786 4.54869 73.7357 4.32126 73.1893L3.0866 70.0393C2.69671 69.075 3.18407 67.9821 4.19129 67.5964L8.74003 65.8607C9.06494 65.7321 9.32487 65.5071 9.48732 65.2179C9.51981 65.1536 13.7436 57.9214 19.2346 53.1643C19.4945 52.9393 19.8195 52.7464 20.1769 52.6179L43.213 43.8107C43.6028 43.65 44.0252 43.5857 44.4476 43.5857C47.3393 43.6179 57.379 44.0036 64.2996 46.9286C64.6245 47.0571 65.0144 47.0893 65.3393 46.9607C69.5631 45.5786 81.7473 42.4607 87.2707 44.7107C90.1624 45.9 92.6642 49.1464 93.9964 50.9464C94.6137 51.75 94.8411 52.4893 94.6462 53.1C94.4512 53.775 93.7689 54.3857 92.7942 54.7714L91.3646 55.3179C90.5848 55.6071 90.2274 56.475 90.5198 57.2143C90.8122 57.9536 91.6895 58.3393 92.4368 58.05L93.8664 57.5036C95.5559 56.8607 96.7581 55.7036 97.3104 54.3214C97.7978 54.4821 98.3176 54.6107 98.87 54.6107C101.567 54.6107 103.744 52.4571 103.744 49.7893C103.744 47.7 102.379 45.9 100.495 45.2571V44.9679H102.119C103.029 44.9679 103.744 44.2607 103.744 43.3607V33.7179C103.744 32.8179 103.029 32.1107 102.119 32.1107H100.495V12.825L126.26 46.8L120.509 61.0393H95.6209C94.7112 61.0393 93.9964 61.7464 93.9964 62.6464V78.7179C93.9964 79.6179 94.7112 80.325 95.6209 80.325H107.155C107.967 85.7571 112.646 89.9679 118.365 89.9679C124.083 89.9679 128.762 85.7571 129.574 80.325H168.888C169.7 85.7571 174.379 89.9679 180.097 89.9679C185.816 89.9679 190.495 85.7571 191.307 80.325H196.343C197.253 80.325 197.967 79.6179 197.967 78.7179V51.6214C197.967 50.1107 197.545 48.6321 196.733 47.3464L196.765 47.4107ZM100.527 41.7857H97.2779V35.3571H100.527V41.7857ZM165.509 20.8929C165.509 19.9929 166.224 19.2857 167.134 19.2857C168.043 19.2857 168.758 19.9929 168.758 20.8929V22.5H165.509V20.8929ZM159.011 25.7143H176.523C178.213 25.7143 179.773 26.55 180.65 27.9964L194.004 49.1143C194.491 49.8857 194.751 50.7536 194.751 51.6857V61.1036H159.011V25.7464V25.7143ZM100.527 6.55714V6.01071C100.527 4.46786 101.794 3.21429 103.354 3.21429C104.166 3.21429 104.978 3.56786 105.498 4.17857L140.848 45H128.957L101.079 8.26071C100.722 7.77857 100.527 7.2 100.527 6.58929V6.55714ZM129.249 48.2143H143.285L148.484 61.0714H124.05L129.249 48.2143ZM118.397 86.7857C113.913 86.7857 110.274 83.1857 110.274 78.75C110.274 74.3143 113.913 70.7143 118.397 70.7143C122.881 70.7143 126.52 74.3143 126.52 78.75C126.52 83.1857 122.881 86.7857 118.397 86.7857ZM180.13 86.7857C175.646 86.7857 172.007 83.1857 172.007 78.75C172.007 74.3143 175.646 70.7143 180.13 70.7143C184.614 70.7143 188.253 74.3143 188.253 78.75C188.253 83.1857 184.614 86.7857 180.13 86.7857ZM194.751 77.1429H191.339C190.527 71.7107 185.848 67.5 180.13 67.5C174.411 67.5 169.733 71.7107 168.921 77.1429H129.606C128.794 71.7107 124.115 67.5 118.397 67.5C112.679 67.5 108 71.7107 107.188 77.1429H97.2779V64.2857H194.751V77.1429Z" fill="#25AAE1"/>
<path d="M174.964 29.6359C174.672 29.1859 174.152 28.9287 173.599 28.9287H163.852C162.942 28.9287 162.228 29.6359 162.228 30.5359V49.8216C162.228 50.7216 162.942 51.4287 163.852 51.4287H186.596C187.181 51.4287 187.733 51.1073 188.025 50.593C188.318 50.0787 188.285 49.4359 187.96 48.9537L174.964 29.668V29.6359ZM165.477 48.2144V32.143H172.722L183.542 48.2144H165.444H165.477Z" fill="#FFC224"/>
<path d="M170.383 54.6431H163.884C162.975 54.6431 162.26 55.3502 162.26 56.2502C162.26 57.1502 162.975 57.8574 163.884 57.8574H170.383C171.292 57.8574 172.007 57.1502 172.007 56.2502C172.007 55.3502 171.292 54.6431 170.383 54.6431Z" fill="#25AAE1"/>
<path d="M118.397 73.9287C115.7 73.9287 113.523 76.0823 113.523 78.7501C113.523 81.418 115.7 83.5716 118.397 83.5716C121.094 83.5716 123.271 81.418 123.271 78.7501C123.271 76.0823 121.094 73.9287 118.397 73.9287ZM118.397 80.3573C117.487 80.3573 116.773 79.6501 116.773 78.7501C116.773 77.8501 117.487 77.143 118.397 77.143C119.307 77.143 120.022 77.8501 120.022 78.7501C120.022 79.6501 119.307 80.3573 118.397 80.3573Z" fill="#25AAE1"/>
<path d="M180.13 73.9287C177.433 73.9287 175.256 76.0823 175.256 78.7501C175.256 81.418 177.433 83.5716 180.13 83.5716C182.826 83.5716 185.003 81.418 185.003 78.7501C185.003 76.0823 182.826 73.9287 180.13 73.9287ZM180.13 80.3573C179.22 80.3573 178.505 79.6501 178.505 78.7501C178.505 77.8501 179.22 77.143 180.13 77.143C181.039 77.143 181.754 77.8501 181.754 78.7501C181.754 79.6501 181.039 80.3573 180.13 80.3573Z" fill="#25AAE1"/>
<path d="M136.267 69.1071C136.267 68.2071 135.552 67.5 134.642 67.5C133.732 67.5 133.018 68.2071 133.018 69.1071V72.3214C133.018 73.2214 133.732 73.9286 134.642 73.9286H163.884C164.794 73.9286 165.509 73.2214 165.509 72.3214V69.1071C165.509 68.2071 164.794 67.5 163.884 67.5C162.974 67.5 162.259 68.2071 162.259 69.1071V70.7143H136.267V69.1071Z" fill="#25AAE1"/>
<path d="M102.152 67.5C101.242 67.5 100.527 68.2071 100.527 69.1071V72.3214C100.527 73.2214 101.242 73.9286 102.152 73.9286C103.062 73.9286 103.776 73.2214 103.776 72.3214V69.1071C103.776 68.2071 103.062 67.5 102.152 67.5Z" fill="#25AAE1"/>
<path d="M20.5346 71.0999C15.6285 72.9964 13.1591 78.4607 15.0761 83.3464C16.9931 88.1999 22.5165 90.6428 27.4552 88.7464C32.3938 86.85 34.8306 81.3857 32.9136 76.4999C30.9967 71.6142 25.4732 69.2035 20.5346 71.0999ZM26.3505 86.0142C22.9714 87.2999 19.1375 85.6285 17.8053 82.2857C16.5057 78.9428 18.1952 75.1499 21.5743 73.8321C24.9534 72.5464 28.7873 74.2178 30.1194 77.5607C31.4191 80.9035 29.7295 84.6964 26.3505 86.0142Z" fill="#25AAE1"/>
<path d="M22.6461 76.4358C20.6967 77.1751 19.7219 79.3608 20.4692 81.2573C21.2165 83.1537 23.4259 84.1501 25.3429 83.4108C27.2598 82.6716 28.2671 80.4858 27.5198 78.5894C26.7725 76.693 24.5631 75.6966 22.6461 76.4358ZM24.3032 80.6787C23.8808 80.8394 23.4259 80.6466 23.2634 80.2287C23.101 79.8108 23.2959 79.3608 23.7183 79.2001C24.1407 79.0394 24.5956 79.2323 24.758 79.6501C24.9205 80.068 24.7255 80.518 24.3032 80.6787Z" fill="#25AAE1"/>
<path d="M76.5813 55.7678C74.6318 56.507 73.6246 58.7249 74.4044 60.6535C75.1842 62.582 77.3936 63.5785 79.343 62.807C81.2925 62.0356 82.2997 59.8499 81.5199 57.9213C80.7401 55.9928 78.5307 54.9963 76.5813 55.7678ZM78.2708 60.0749C77.8484 60.2356 77.3286 60.0106 77.1661 59.5928C77.0037 59.1749 77.2311 58.6606 77.6535 58.4999C78.0759 58.3392 78.5957 58.5642 78.7582 58.982C78.9206 59.3999 78.6932 59.9142 78.2708 60.0749Z" fill="#25AAE1"/>
<path d="M74.5014 50.4642C69.5953 52.3606 67.1259 57.8249 69.0429 62.7106C70.9599 67.5642 76.4833 70.0071 81.422 68.1106C86.3281 66.2142 88.7974 60.7499 86.8804 55.8642C84.9635 50.9785 79.44 48.5678 74.5014 50.4642ZM80.3173 65.3785C76.9382 66.6642 73.1043 64.9928 71.7721 61.6499C70.4725 58.3071 72.162 54.5142 75.5411 53.1963C78.9202 51.9106 82.7541 53.5821 84.0862 56.9249C85.3859 60.2678 83.6963 64.0606 80.3173 65.3785Z" fill="#25AAE1"/>
<path d="M65.6641 65.1858L36.9745 76.1465C36.1948 76.4358 35.8373 77.3036 36.1298 78.0429C36.4222 78.8143 37.2994 79.1679 38.0467 78.8786L66.7363 67.9179C67.5161 67.6286 67.8734 66.7608 67.581 66.0215C67.2886 65.2822 66.4114 64.8965 65.6641 65.1858Z" fill="#25AAE1"/>
<path d="M36.8451 57.5037L34.2458 50.8501C33.9534 50.0787 33.0761 49.7251 32.3288 50.0144C31.5816 50.3037 31.1917 51.1716 31.4841 51.9109L33.5635 57.1823L22.5491 61.393H15.2386C14.4263 61.4251 13.744 62.1001 13.7765 62.9037C13.809 63.7073 14.4588 64.3823 15.2711 64.3501H22.874C23.0689 64.318 23.2314 64.2858 23.3938 64.2216L36.0328 59.4001C36.8126 59.1108 37.17 58.243 36.8776 57.5037H36.8451Z" fill="#2BB673"/>
<path d="M59.394 48.3106C59.1015 47.5392 58.2243 47.1856 57.477 47.4749L41.1665 53.7106L39.282 48.8892C38.9896 48.1177 38.1124 47.7642 37.3651 48.0534C36.6178 48.3427 36.2279 49.2106 36.5203 49.9499L38.9246 56.1213C39.2171 56.8927 40.0943 57.2463 40.8416 56.957L58.5167 50.207C59.2965 49.9177 59.6539 49.0499 59.3615 48.3106H59.394Z" fill="#2BB673"/>
<path d="M49.7108 57.4392L44.8046 59.3035C44.0248 59.5928 43.6674 60.4607 43.9598 61.1999C44.2523 61.9392 45.1295 62.3249 45.8768 62.0357L50.783 60.1714C51.5627 59.8821 51.9201 59.0142 51.6277 58.2749C51.3353 57.5035 50.458 57.1499 49.7108 57.4392Z" fill="#25AAE1"/>
</g>
<defs>
<clipPath id="clip0_456_474">
<rect width="198" height="90" fill="white"/>
</clipPath>
</defs>
</svg>
