<svg width="167" height="123" viewBox="0 0 167 123" fill="none" xmlns="http://www.w3.org/2000/svg">
<path d="M166.4 65.1312L148.926 34.9982C148.487 34.2454 147.682 33.7867 146.813 33.7944C146.813 33.7944 132.572 33.946 132.545 33.9486C133.976 23.2053 137.832 15.9091 141.119 13.3807C142.163 12.5777 143.142 12.2385 144.027 12.3747C148.416 13.0287 151.104 18.7382 151.227 27.6147C151.245 28.9547 152.339 30.0262 153.675 30.0056C155.008 29.9876 156.075 28.8866 156.055 27.5479C155.899 16.0941 151.667 8.64248 144.748 7.5774C142.547 7.24465 140.277 7.91915 138.184 9.52897C132.959 13.5477 128.904 23.1475 127.601 34.5807C126.709 42.4037 127.246 49.5161 128.886 54.9546C126.026 58.3309 125.358 63.3891 127.776 67.5607C130.864 72.881 137.482 74.5447 142.673 71.5088C147.864 68.4729 149.638 61.733 146.615 56.5181C143.886 51.8146 138.112 49.8373 133.088 51.8981C132.241 48.2673 131.832 43.7398 132.097 38.7266C132.284 38.7703 145.46 38.656 145.46 38.656L161.52 66.3505L149.622 86.9004L99.0996 116.449C93.148 119.928 85.4872 117.899 82.0215 111.921L66.7613 85.6079C63.2865 79.6157 65.3041 71.9469 71.2684 68.4588L122.342 38.5879C123.494 37.9134 123.883 36.4295 123.214 35.2719C122.543 34.1156 121.064 33.7238 119.914 34.397L68.8402 64.2692C60.5692 69.1037 57.7712 79.7429 62.5893 88.0502L77.8495 114.365C82.6675 122.666 93.2952 125.459 101.53 120.641L152.604 90.7701C152.966 90.5594 153.266 90.2575 153.476 89.8926L166.403 67.5697C166.84 66.8156 166.839 65.8854 166.403 65.1312H166.4ZM142.442 58.9605C144.125 61.8615 143.143 65.6015 140.253 67.2896C137.346 68.9907 133.635 67.9834 131.959 65.0914C131.155 63.709 130.929 62.0966 131.316 60.5472C132.76 62.8803 134.636 64.2781 136.594 65.234C138.632 66.2297 140.515 64.8666 140.713 63.542C140.913 62.2161 139.934 61.2525 138.687 60.781C136.555 59.9755 135.001 58.6085 134.604 56.5194C137.446 55.1678 140.853 56.2226 142.44 58.9592L142.442 58.9605Z" fill="#2BB673"/>
<path d="M117.516 88.9357H102.934C103.997 87.5289 104.637 86.1491 104.912 84.7191C105.208 83.1799 105.052 81.7294 104.688 80.2931H112.598C113.955 80.2931 115.057 79.1869 115.057 77.8237C115.057 76.4606 113.957 75.3544 112.598 75.3544H102.985C102.787 74.8033 102.592 74.2341 102.407 73.6354C101.487 70.6586 101.59 68.089 102.691 66.5884C103.664 65.2626 105.272 64.9838 106.451 64.9838C110.158 64.9838 111.403 67.1229 111.582 67.4749C111.642 67.6265 111.687 67.6921 111.782 67.8347L112.273 68.576C113.027 69.7104 114.553 70.0175 115.683 69.2608C116.812 68.504 117.118 66.9713 116.364 65.8368L115.951 65.215C115.374 64.1204 112.8 60.0464 106.449 60.0464C103.181 60.0464 100.44 61.3299 98.7298 63.6604C96.6623 66.4792 96.299 70.5417 97.7076 75.1C97.7344 75.1874 97.7626 75.2696 97.7907 75.3557H95.1386C93.7812 75.3557 92.6797 76.4619 92.6797 77.825C92.6797 79.1882 93.7799 80.2944 95.1386 80.2944H99.5537C100.021 81.6601 100.277 82.7727 100.082 83.7812C99.775 85.3705 98.2718 87.1743 95.3497 89.456C94.5207 90.1036 94.1932 91.2085 94.5335 92.2067C94.8738 93.205 95.809 93.8744 96.8594 93.8744H117.513C118.871 93.8744 119.972 92.7682 119.972 91.405C119.972 90.0419 118.872 88.9357 117.513 88.9357H117.516Z" fill="#FFC224"/>
<path d="M55.6972 70.0981H10.99C8.21253 70.0981 5.95318 67.7753 5.95318 64.9192V46.3299C5.95318 44.5633 6.45341 42.8687 7.40398 41.4233L15.8554 28.4664C16.2316 27.8999 16.5616 27.3012 16.8329 26.6922L24.3286 10.0917C25.7231 6.98509 28.791 4.97699 32.1417 4.97699H79.162C82.5024 4.97699 85.5626 6.98509 86.9596 10.0955L94.4541 26.6909C94.4605 26.7063 94.4682 26.7217 94.4759 26.7371C94.7241 27.2536 95.0324 27.8626 95.4239 28.4523L101.485 37.7296C102.125 38.7099 103.435 38.9823 104.41 38.3399C105.386 37.6975 105.657 36.3819 105.018 35.4029L98.9485 26.1127C98.6965 25.7324 98.4764 25.2956 98.2922 24.9153L97.2073 22.5115C98.6683 22.3381 100.192 22.1479 101.557 21.9706C101.574 21.9681 101.589 21.9655 101.606 21.9642H101.624C101.686 21.9565 101.785 21.9475 101.903 21.927C102.449 21.8473 102.981 21.7831 103.495 21.7214C103.718 21.6944 103.933 21.6687 104.139 21.643C104.148 21.643 104.157 21.6405 104.166 21.6392C104.903 21.5364 105.618 21.8871 105.938 22.491L106.896 24.3462C107.262 25.04 107.007 25.8275 106.292 26.2348L105.376 26.678C104.326 27.1868 103.884 28.4549 104.391 29.5097C104.756 30.2677 105.509 30.7109 106.296 30.7109C106.604 30.7109 106.916 30.6428 107.212 30.5002L108.179 30.0326C108.207 30.0184 108.237 30.0043 108.265 29.9889C111.053 28.4793 112.093 25.1273 110.639 22.3753L109.68 20.5189C108.525 18.3335 106.084 17.0949 103.603 17.4328C103.407 17.4572 103.204 17.4817 102.994 17.5074C102.468 17.5703 101.871 17.6423 101.259 17.7322C101.248 17.7335 101.235 17.736 101.223 17.7373C101.149 17.745 101.071 17.7527 100.988 17.7656C99.2185 17.9956 97.1843 18.2448 95.3766 18.4542L90.8118 8.34694C88.7354 3.72177 84.163 0.733398 79.1645 0.733398H32.1429C27.133 0.733398 22.5541 3.72177 20.4803 8.34309L15.9143 18.4542C14.1065 18.2448 12.0736 17.9956 10.303 17.7656C10.2198 17.7527 10.1431 17.745 10.0676 17.7373C10.0561 17.7348 10.0433 17.7335 10.0318 17.7322C9.41896 17.6423 8.82278 17.5703 8.29697 17.5074C8.08715 17.4817 7.88373 17.4572 7.68799 17.4328C5.20604 17.0949 2.7663 18.3335 1.60208 20.5356L0.660473 22.3574C-0.800556 25.126 0.238284 28.4767 3.02729 29.9863C3.05543 30.0017 3.08358 30.0159 3.113 30.03L4.0802 30.4977C4.37573 30.6403 4.6879 30.7084 4.99622 30.7084C5.78175 30.7084 6.53657 30.2664 6.90119 29.5071C7.40781 28.4523 6.96643 27.1842 5.91608 26.6755L5.00006 26.2322C4.2849 25.825 4.0303 25.0361 4.40388 24.3269L5.34421 22.5064C5.673 21.8833 6.39072 21.5338 7.12635 21.6366C7.13531 21.6366 7.14426 21.6392 7.15322 21.6405C7.3592 21.6662 7.57413 21.6918 7.79674 21.7188C8.31104 21.7805 8.84197 21.8447 9.38954 21.9244C9.50852 21.9449 9.60575 21.9539 9.66844 21.9604H9.68635C9.70298 21.9642 9.71834 21.9668 9.73497 21.9694C11.1013 22.1467 12.625 22.3355 14.0848 22.5102L12.9845 24.9462C12.808 25.3432 12.5854 25.7453 12.3333 26.1256L3.87422 39.0915C2.47077 41.2268 1.72874 43.7295 1.72874 46.3299V64.9192C1.72874 70.1148 5.8841 74.3417 10.99 74.3417H55.6972C56.864 74.3417 57.8094 73.3923 57.8094 72.2206C57.8094 71.0488 56.864 70.0994 55.6972 70.0994V70.0981Z" fill="#25AAE1"/>
<path d="M39.2402 59.6929C38.0734 59.6929 37.1279 60.6423 37.1279 61.814C37.1279 62.9857 38.0734 63.9352 39.2402 63.9352H53.9182C55.085 63.9352 56.0305 62.9857 56.0305 61.814C56.0305 60.6423 55.085 59.6929 53.9182 59.6929H39.2402Z" fill="#25AAE1"/>
<path d="M93.2437 30.6006C93.2437 29.4289 92.2983 28.4795 91.1315 28.4795H20.1757C19.0089 28.4795 18.0635 29.4289 18.0635 30.6006C18.0635 31.7724 19.0089 32.7218 20.1757 32.7218H91.1302C92.297 32.7218 93.2425 31.7724 93.2425 30.6006H93.2437Z" fill="#25AAE1"/>
<path d="M23.5272 77.0349C22.3604 77.0349 21.415 77.9844 21.415 79.1561V80.5025H9.58089V78.7051C9.58089 77.5334 8.63544 76.584 7.46867 76.584C6.30189 76.584 5.35645 77.5334 5.35645 78.7051V80.8032C5.35645 82.977 7.10149 84.7448 9.24698 84.7448H21.7489C23.8944 84.7448 25.6394 82.9757 25.6394 80.8032V79.1561C25.6394 77.9844 24.694 77.0349 23.5272 77.0349Z" fill="#25AAE1"/>
<path d="M24.8915 47.2482C23.0377 47.1608 21.1839 47.0747 19.3467 46.9912C19.1088 46.9809 18.8913 46.8781 18.7186 46.6957C17.7194 45.6435 16.7829 44.4898 15.9373 43.2641C15.272 42.3018 13.9555 42.0615 12.9973 42.7309C12.0391 43.399 11.8011 44.721 12.4651 45.6833C13.4361 47.0876 14.5108 48.4134 15.6609 49.625C16.5872 50.6001 17.8282 51.1706 19.1561 51.2309C20.9907 51.3145 22.842 51.4005 24.6932 51.4879C26.9308 51.5932 29.1684 51.6986 31.3753 51.7962C31.4073 51.7975 31.4393 51.7988 31.47 51.7988C32.5932 51.7988 33.5284 50.9098 33.5783 49.7714C33.6295 48.601 32.7276 47.6105 31.5621 47.5578C29.359 47.4601 27.124 47.3548 24.8902 47.2494L24.8915 47.2482Z" fill="#25AAE1"/>
</svg>
