<svg width="130" height="133" viewBox="0 0 130 133" fill="none" xmlns="http://www.w3.org/2000/svg">
<g clip-path="url(#clip0_456_473)">
<path d="M113.14 92.0529C110.576 88.2074 105.362 87.1651 101.517 89.7288L91.4112 96.4972C90.4563 97.1327 90.1995 98.4232 90.835 99.377C91.4716 100.332 92.7599 100.589 93.7148 99.9531L103.822 93.1847C105.761 91.8921 108.392 92.4176 109.685 94.3576C110.978 96.2976 110.452 98.9281 108.512 100.221L78.0405 120.566C77.7028 120.791 77.3381 120.966 76.9572 121.085C76.3811 121.265 75.7617 121.317 75.1575 121.239L45.8126 112.842C45.7381 112.819 45.6615 112.799 45.5828 112.784C43.4313 112.389 41.2431 112.84 39.4207 114.055L37.6739 115.221L26.3781 98.2775L39.9538 89.1742C41.9283 87.8578 44.2891 87.3755 46.6164 87.8039L78.224 97.9409C78.224 97.9409 78.2272 97.9409 78.2283 97.9409C78.2304 97.9409 78.2304 97.9419 78.2315 97.9419C80.4229 98.6357 81.6767 100.963 81.0271 103.13C80.711 104.183 79.9956 105.049 79.0105 105.568C78.0157 106.094 76.8677 106.203 75.7768 105.876C75.7661 105.872 75.7563 105.871 75.7456 105.868C75.7326 105.865 75.7229 105.861 75.711 105.857L60.2763 101.766C59.1682 101.472 58.0309 102.133 57.7374 103.241C57.5788 103.84 57.6986 104.447 58.0169 104.925C58.2877 105.332 58.7031 105.645 59.2124 105.78L74.6472 109.871C74.6472 109.871 74.6515 109.871 74.6536 109.872C76.7738 110.489 79.0062 110.266 80.9495 109.24C82.9251 108.197 84.3655 106.45 85.0042 104.322C86.3012 99.9995 83.8314 95.3675 79.4993 93.9864C79.4972 93.9864 79.495 93.9843 79.4918 93.9843L47.9296 83.8624C47.8152 83.8171 47.6965 83.7804 47.5724 83.7556C44.1111 83.0629 40.5871 83.7599 37.6448 85.7214L24.0734 94.8215L22.8725 93.0207C22.2359 92.0669 20.9476 91.809 19.9927 92.4446L6.11707 101.696C5.16325 102.332 4.90538 103.621 5.54089 104.575L16.8691 121.567C17.5057 122.521 18.794 122.779 19.7478 122.143C20.7016 121.507 20.9595 120.218 20.3239 119.264L10.147 103.999L20.5678 97.0518L36.5981 121.096L26.1774 128.043L25.6767 127.292C25.0402 126.337 23.7519 126.081 22.797 126.716C21.8431 127.353 21.5853 128.641 22.2208 129.595L23.8738 132.073C24.5104 133.027 25.7987 133.285 26.7536 132.649L40.6292 123.398C41.583 122.762 41.8409 121.473 41.2054 120.518L39.9753 118.673L41.7222 117.507C42.6188 116.909 43.6913 116.682 44.7509 116.855L74.1562 125.27C74.1562 125.27 74.1638 125.271 74.167 125.273C74.2048 125.283 74.2447 125.292 74.2835 125.299C74.3181 125.307 74.3515 125.316 74.385 125.321C74.3936 125.322 74.4012 125.324 74.4098 125.325C75.6733 125.522 76.9821 125.425 78.1959 125.044C78.9533 124.806 79.6763 124.461 80.342 124.018L110.813 103.671C114.658 101.108 115.701 95.894 113.137 92.0486L113.14 92.0529Z" fill="#25AAE1"/>
<path d="M79.4737 54.8565L93.2824 42.8917C93.9212 42.3382 94.1672 41.4556 93.905 40.6507C93.6439 39.8468 92.9263 39.276 92.0837 39.2038L73.8792 37.6403L66.7676 20.8104C66.4385 20.0314 65.6746 19.5254 64.8287 19.5254C63.9828 19.5254 63.22 20.0314 62.8898 20.8104L55.7783 37.6403L37.5738 39.2038C36.7311 39.276 36.0136 39.8468 35.7525 40.6507C35.4913 41.4556 35.7363 42.3382 36.3761 42.8917L50.1848 54.8565L46.0459 72.652C45.8538 73.4764 46.1743 74.3341 46.8584 74.8315C47.2263 75.0991 47.66 75.234 48.0959 75.234C48.4714 75.234 48.848 75.1337 49.1825 74.9319L64.8287 65.4963L80.4749 74.9319C80.8105 75.1337 81.1871 75.234 81.5615 75.234C81.5626 75.234 81.5647 75.234 81.5669 75.234C82.7289 75.234 83.672 74.2921 83.672 73.1289C83.672 72.9121 83.6385 72.7038 83.5792 72.5064L79.4737 54.8565ZM65.9163 61.2354C65.5818 61.0336 65.2053 60.9333 64.8287 60.9333C64.4522 60.9333 64.0756 61.0336 63.7422 61.2354L51.2746 68.7537L54.572 54.5738C54.7489 53.8131 54.49 53.0168 53.8998 52.5065L42.8964 42.9726L57.4021 41.7264C58.1801 41.6595 58.8577 41.1675 59.1608 40.4489L64.8276 27.0383L70.4944 40.4489C70.7987 41.1686 71.4752 41.6606 72.2532 41.7264L86.7589 42.9726L75.7555 52.5065C75.1653 53.0168 74.9064 53.8131 75.0833 54.5738L78.3817 68.7537L65.9142 61.2354H65.9163Z" fill="#25AAE1"/>
<path d="M37.3529 54.4033L32.7997 58.3481C32.244 58.8293 32.0012 59.5781 32.1674 60.2935L34.7148 71.2483L25.0839 65.4402C24.4549 65.0604 23.6672 65.0604 23.0382 65.4402L13.4061 71.2483L15.9536 60.2935C16.1198 59.5781 15.877 58.8293 15.3213 58.3481L6.82115 50.983L18.0274 50.0205C18.7589 49.9569 19.3966 49.4951 19.6825 48.8175L24.061 38.4571L28.4384 48.8175C28.8646 49.8252 30.0267 50.2978 31.0345 49.8716C32.0422 49.4454 32.5137 48.2834 32.0886 47.2756L25.8867 32.5972C25.577 31.8635 24.8584 31.3877 24.0621 31.3877C23.2658 31.3877 22.5472 31.8635 22.2376 32.5972L16.4996 46.1751L1.81254 47.4364C1.01949 47.5044 0.344054 48.0406 0.0980478 48.7981C-0.147959 49.5555 0.0829421 50.3863 0.685011 50.9075L11.8254 60.56L8.48601 74.9179C8.30582 75.6926 8.60685 76.5008 9.251 76.969C9.59735 77.2215 10.0052 77.3478 10.4152 77.3478C10.768 77.3478 11.123 77.2528 11.4381 77.0629L24.061 69.4507L36.684 77.0629C37.3659 77.474 38.228 77.4373 38.8711 76.969C39.5152 76.5008 39.8162 75.6937 39.6361 74.9179L36.2977 60.56L39.9479 57.3975C40.7744 56.6811 40.8639 55.4294 40.1475 54.6029C39.431 53.7765 38.1805 53.6858 37.3529 54.4033Z" fill="#2BB673"/>
<path d="M117.835 60.56L128.976 50.9075C129.577 50.3863 129.809 49.5555 129.563 48.7981C129.317 48.0406 128.641 47.5044 127.848 47.4364L113.161 46.1751L107.423 32.5972C107.114 31.8635 106.395 31.3877 105.598 31.3877C104.8 31.3877 104.083 31.8635 103.773 32.5972L97.5712 47.2756C97.145 48.2834 97.6165 49.4454 98.6242 49.8716C99.6342 50.2978 100.795 49.8252 101.22 48.8175L105.598 38.4571L109.976 48.8175C110.262 49.4951 110.9 49.9569 111.631 50.0205L122.838 50.983L114.337 58.3481C113.782 58.8293 113.539 59.5781 113.705 60.2935L116.253 71.2483L106.621 65.4402C105.991 65.0604 105.204 65.0604 104.575 65.4402L94.9428 71.2483L97.4902 60.2935C97.6564 59.5781 97.4136 58.8282 96.858 58.3481L92.3047 54.4033C91.4771 53.6869 90.2266 53.7765 89.5101 54.6029C88.7937 55.4294 88.8832 56.6811 89.7108 57.3975L93.361 60.56L90.0216 74.9179C89.8414 75.6926 90.1424 76.5008 90.7866 76.969C91.4296 77.4373 92.2917 77.4751 92.9736 77.0629L105.597 69.4507L118.221 77.0629C118.537 77.2539 118.891 77.3478 119.243 77.3478C119.652 77.3478 120.061 77.2204 120.408 76.969C121.052 76.5008 121.353 75.6937 121.173 74.9179L117.833 60.56H117.835Z" fill="#2BB673"/>
<path d="M56.6775 10.6927L47.1426 9.87371L43.4093 1.04121C43.1428 0.410011 42.5246 0 41.8394 0C41.8362 0 41.834 0 41.8308 0C41.8276 0 41.8254 0 41.8222 0C41.137 0 40.5188 0.410011 40.2522 1.04121L36.5201 9.87479L26.9852 10.6937C26.3022 10.752 25.7217 11.2138 25.5102 11.8655C25.2987 12.5172 25.4972 13.2315 26.0152 13.6803L30.6386 17.6866C30.6817 17.733 30.726 17.7772 30.7745 17.8193L33.2443 19.96L31.0723 29.2985C30.9169 29.9653 31.177 30.6613 31.7305 31.0637C32.0078 31.2655 32.3326 31.3734 32.6616 31.3863C32.6724 31.3863 32.6843 31.3863 32.6951 31.3874C32.707 31.3874 32.7199 31.3885 32.7318 31.3885C32.7415 31.3885 32.7512 31.3885 32.7609 31.3885C33.0609 31.3863 33.3619 31.3065 33.6295 31.1446L41.8308 26.1986L50.0321 31.1446C50.2997 31.3065 50.6007 31.3863 50.9007 31.3885C50.9104 31.3885 50.9201 31.3885 50.9298 31.3885C50.9417 31.3885 50.9546 31.3874 50.9665 31.3874C50.9773 31.3874 50.9891 31.3874 50.9999 31.3863C51.329 31.3723 51.6538 31.2655 51.9311 31.0637C52.4857 30.6613 52.7446 29.9664 52.5893 29.2985L50.4173 19.96L52.8871 17.8193C52.9356 17.7772 52.9799 17.733 53.023 17.6866L57.6464 13.6803C58.1643 13.2315 58.3629 12.5172 58.1514 11.8655C57.9399 11.2138 57.3583 10.752 56.6764 10.6937L56.6775 10.6927ZM47.3929 18.0545C46.9149 18.4678 46.7056 19.113 46.8491 19.728L48.337 26.1263L42.7209 22.7394C42.448 22.5743 42.1394 22.4934 41.8319 22.4945C41.5244 22.4934 41.2158 22.5743 40.9428 22.7394L35.3267 26.1263L36.8146 19.728C36.9581 19.1119 36.7477 18.4678 36.2697 18.0545L31.2957 13.744L37.8537 13.1808C38.4838 13.1268 39.0319 12.7287 39.2779 12.146L41.8319 6.10377L44.3858 12.146C44.6318 12.7287 45.181 13.1268 45.8101 13.1808L52.3681 13.744L47.394 18.0545H47.3929Z" fill="#FFC224"/>
<path d="M104.151 11.8645C103.94 11.2128 103.359 10.751 102.676 10.6928L93.1415 9.87381L89.4093 1.04024C89.1428 0.409034 88.5246 -0.000976562 87.8394 -0.000976562C87.8362 -0.000976562 87.834 -0.000976562 87.8308 -0.000976562C87.8276 -0.000976562 87.8254 -0.000976562 87.8222 -0.000976562C87.137 -0.000976562 86.5188 0.409034 86.2522 1.04024L82.5201 9.87381L72.9852 10.6928C72.3022 10.751 71.7217 11.2128 71.5102 11.8645C71.2987 12.5162 71.4972 13.2305 72.0152 13.6794L76.6386 17.6856C76.6817 17.732 76.726 17.7762 76.7745 17.8183L79.2443 19.959L77.0723 29.2975C76.9169 29.9643 77.177 30.6603 77.7305 31.0627C78.0078 31.2645 78.3326 31.3724 78.6616 31.3854C78.6724 31.3854 78.6843 31.3854 78.6951 31.3864C78.707 31.3864 78.7199 31.3875 78.7318 31.3875C78.7415 31.3875 78.7512 31.3875 78.7609 31.3875C79.0609 31.3854 79.3619 31.3055 79.6295 31.1437L87.8308 26.1976L96.0321 31.1437C96.2997 31.3055 96.6007 31.3854 96.9007 31.3875C96.9104 31.3875 96.9201 31.3875 96.9298 31.3875C96.9417 31.3875 96.9535 31.3864 96.9665 31.3864C96.9773 31.3864 96.9891 31.3864 96.9999 31.3854C97.329 31.3713 97.6538 31.2645 97.9311 31.0627C98.4857 30.6603 98.7446 29.9654 98.5893 29.2975L96.4173 19.959L98.8871 17.8183C98.9356 17.7762 98.9798 17.732 99.023 17.6856L103.646 13.6794C104.164 13.2305 104.363 12.5162 104.151 11.8645ZM93.3918 18.0546C92.9138 18.4679 92.7045 19.1131 92.8469 19.7281L94.3349 26.1264L88.7188 22.7395C88.4458 22.5744 88.1372 22.4935 87.8297 22.4946C87.5222 22.4935 87.2136 22.5744 86.9406 22.7395L81.3246 26.1264L82.8125 19.7281C82.956 19.112 82.7456 18.4679 82.2676 18.0546L77.2935 13.7441L83.8515 13.1809C84.4816 13.1269 85.0298 12.7288 85.2758 12.1461L87.8297 6.10387L90.3836 12.1461C90.6296 12.7288 91.1778 13.1269 91.8079 13.1809L98.3659 13.7441L93.3918 18.0546Z" fill="#FFC224"/>
</g>
<defs>
<clipPath id="clip0_456_473">
<rect width="129.661" height="133" fill="white"/>
</clipPath>
</defs>
</svg>
