<svg width="94" height="140" viewBox="0 0 94 140" fill="none" xmlns="http://www.w3.org/2000/svg">
<g clip-path="url(#clip0_456_444)">
<path d="M92.026 0H1.97537C0.884455 0 0 0.8823 0 1.97056V115.835C0 116.923 0.884455 117.806 1.97537 117.806H55.5901V138.031C55.5901 138.905 56.1669 139.674 57.0074 139.92C57.8479 140.167 58.751 139.833 59.2252 139.098L65.2006 129.847L71.176 139.098C71.5463 139.67 72.1777 140.001 72.8357 140.001C73.0208 140.001 73.2086 139.975 73.3938 139.92C74.2343 139.673 74.8111 138.904 74.8111 138.031V117.806H92.0246C93.1155 117.806 94 116.923 94 115.835V1.97056C94 0.8823 93.1155 0 92.0246 0H92.026ZM65.2019 105.065C57.6521 105.065 51.5102 98.9385 51.5102 91.4071C51.5102 83.8756 57.6521 77.7487 65.2019 77.7487C72.7518 77.7487 78.8937 83.8756 78.8937 91.4071C78.8937 98.9385 72.7518 105.065 65.2019 105.065ZM66.8616 125.143C66.498 124.58 65.8733 124.241 65.2019 124.241C64.5306 124.241 63.9059 124.581 63.5422 125.143L59.5409 131.336V108.071C61.3191 108.674 63.2212 109.007 65.2019 109.007C67.1826 109.007 69.0847 108.674 70.863 108.071V131.336L66.8616 125.143ZM90.0506 113.865H74.8111V106.154C79.6409 103.011 82.8417 97.5765 82.8417 91.4071C82.8417 81.7031 74.9283 73.8089 65.2006 73.8089C55.4729 73.8089 47.5594 81.7031 47.5594 91.4071C47.5594 97.5765 50.7603 103.011 55.5901 106.154V113.865H3.94941V3.93979H90.0506V113.866V113.865Z" fill="#25AAE1"/>
<path d="M11.7166 107.561H37.9159C39.0068 107.561 39.8913 106.678 39.8913 105.59C39.8913 104.502 39.0068 103.62 37.9159 103.62H13.692V13.7897H80.3085V66.8766C80.3085 67.9648 81.1929 68.8471 82.2839 68.8471C83.3748 68.8471 84.2592 67.9648 84.2592 66.8766V11.8192C84.2592 10.7309 83.3748 9.84863 82.2839 9.84863H11.7166C10.6257 9.84863 9.74121 10.7309 9.74121 11.8192V105.591C9.74121 106.68 10.6257 107.562 11.7166 107.562V107.561Z" fill="#FFC224"/>
<path d="M58.586 26.3972C59.6769 26.3972 60.5614 25.5149 60.5614 24.4266C60.5614 23.3384 59.6769 22.4561 58.586 22.4561H35.4143C34.3234 22.4561 33.439 23.3384 33.439 24.4266C33.439 25.5149 34.3234 26.3972 35.4143 26.3972H58.586Z" fill="#2BB673"/>
<path d="M72.1457 36.1157H21.8543C20.7634 36.1157 19.8789 36.998 19.8789 38.0863C19.8789 39.1745 20.7634 40.0568 21.8543 40.0568H72.1457C73.2366 40.0568 74.1211 39.1745 74.1211 38.0863C74.1211 36.998 73.2366 36.1157 72.1457 36.1157Z" fill="#2BB673"/>
<path d="M72.1457 48.4614H21.8543C20.7634 48.4614 19.8789 49.3437 19.8789 50.432C19.8789 51.5202 20.7634 52.4025 21.8543 52.4025H72.1457C73.2366 52.4025 74.1211 51.5202 74.1211 50.432C74.1211 49.3437 73.2366 48.4614 72.1457 48.4614Z" fill="#2BB673"/>
<path d="M72.1457 61.5947H21.8543C20.7634 61.5947 19.8789 62.477 19.8789 63.5653C19.8789 64.6535 20.7634 65.5358 21.8543 65.5358H72.1457C73.2366 65.5358 74.1211 64.6535 74.1211 63.5653C74.1211 62.477 73.2366 61.5947 72.1457 61.5947Z" fill="#2BB673"/>
<path d="M42.7868 75.7793H21.8543C20.7634 75.7793 19.8789 76.6616 19.8789 77.7499C19.8789 78.8381 20.7634 79.7204 21.8543 79.7204H42.7868C43.8777 79.7204 44.7622 78.8381 44.7622 77.7499C44.7622 76.6616 43.8777 75.7793 42.7868 75.7793Z" fill="#2BB673"/>
<path d="M21.8543 89.438C20.7634 89.438 19.8789 90.3203 19.8789 91.4085C19.8789 92.4968 20.7634 93.3791 21.8543 93.3791H37.3895C38.4804 93.3791 39.3649 92.4968 39.3649 91.4085C39.3649 90.3203 38.4804 89.438 37.3895 89.438H21.8543Z" fill="#2BB673"/>
</g>
<defs>
<clipPath id="clip0_456_444">
<rect width="94" height="140" fill="white"/>
</clipPath>
</defs>
</svg>
