<svg width="512" height="449" viewBox="0 0 512 449" fill="none" xmlns="http://www.w3.org/2000/svg">
<path d="M323.8 2.78164C285.6 -8.11836 245.7 13.9816 234.8 52.1816L229.1 72.1816C225.4 85.1816 218.7 97.1816 209.6 107.182L158.3 163.582C149.4 173.382 150.1 188.582 159.9 197.482C169.7 206.382 184.9 205.682 193.8 195.882L245.1 139.482C259.2 123.982 269.5 105.482 275.2 85.3816L280.9 65.3816C284.5 52.6816 297.8 45.2816 310.6 48.8816C323.4 52.4816 330.7 65.7816 327.1 78.5816L321.4 98.5816C315.7 118.482 306.7 137.282 294.8 154.082C289.6 161.382 289 170.982 293.1 178.982C297.2 186.982 305.4 191.982 314.4 191.982H448C456.8 191.982 464 199.182 464 207.982C464 214.782 459.7 220.682 453.6 222.982C446.2 225.782 440.6 231.982 438.7 239.682C436.8 247.382 438.8 255.482 444 261.382C446.5 264.182 448 267.882 448 271.982C448 279.782 442.4 286.282 435 287.682C426.8 289.282 419.9 294.982 417 302.782C414.1 310.582 415.4 319.482 420.6 326.082C422.7 328.782 424 332.182 424 335.982C424 342.682 419.8 348.582 413.8 350.882C402.3 355.382 396.1 367.782 399.4 379.682C399.8 380.982 400 382.482 400 383.982C400 392.782 392.8 399.982 384 399.982H286.5C273.9 399.982 261.5 396.282 251 389.282L189.3 348.182C178.3 340.782 163.4 343.782 156 354.882C148.6 365.982 151.6 380.782 162.7 388.182L224.4 429.282C242.8 441.582 264.4 448.082 286.5 448.082H384C418.7 448.082 446.9 420.482 448 386.082C462.6 374.382 472 356.382 472 336.082C472 331.582 471.5 327.282 470.7 323.082C486.1 311.382 496 292.882 496 272.082C496 265.582 495 259.282 493.2 253.382C504.8 241.682 512 225.682 512 207.982C512 172.682 483.4 143.982 448 143.982H355.7C360.4 133.582 364.4 122.782 367.5 111.782L373.2 91.7816C384.1 53.5816 362 13.6816 323.8 2.78164ZM32 159.982C14.3 159.982 0 174.282 0 191.982V415.982C0 433.682 14.3 447.982 32 447.982H96C113.7 447.982 128 433.682 128 415.982V191.982C128 174.282 113.7 159.982 96 159.982H32Z" fill="#696A6A"/>
</svg>
