<svg width="28" height="34" viewBox="0 0 28 34" fill="none" xmlns="http://www.w3.org/2000/svg">
<path d="M26 14.3333C26 23.6666 14 31.6666 14 31.6666C14 31.6666 2 23.6666 2 14.3333C2 11.1507 3.26428 8.09841 5.51472 5.84797C7.76516 3.59753 10.8174 2.33325 14 2.33325C17.1826 2.33325 20.2348 3.59753 22.4853 5.84797C24.7357 8.09841 26 11.1507 26 14.3333Z" stroke="#25AAE1" stroke-width="4" stroke-linecap="round" stroke-linejoin="round"/>
<path d="M14 18.3333C16.2091 18.3333 18 16.5424 18 14.3333C18 12.1241 16.2091 10.3333 14 10.3333C11.7909 10.3333 10 12.1241 10 14.3333C10 16.5424 11.7909 18.3333 14 18.3333Z" stroke="#25AAE1" stroke-width="4" stroke-linecap="round" stroke-linejoin="round"/>
</svg>
