<svg width="80" height="30" viewBox="0 0 80 30" fill="none" xmlns="http://www.w3.org/2000/svg">
<g clip-path="url(#clip0_816_828)">
<path d="M76.6275 14.3622C75.5411 14.3964 74.1296 14.9128 71.461 16.8253C70.1079 17.8028 68.2313 19.4416 66.7953 20.4093C66.6002 20.5217 65.5887 21.0837 64.8439 21.1668C64.8439 21.1668 64.0795 21.3411 63.8828 20.6911C63.6063 19.5508 64.813 16.7194 66.34 14.4355C68.7484 10.8222 70.4982 9.03838 71.9212 7.93061C72.0431 7.50217 71.017 4.83538 70.2315 5.56357C69.5144 6.22498 66.8718 9.71444 65.2911 12.1206C64.891 11.7426 64.4406 10.5811 63.4778 10.5974C62.2013 10.6186 60.2709 13.2235 59.0529 15.3217C57.7731 16.9035 55.6687 18.4039 54.5223 18.399C53.997 18.399 53.8311 17.6643 54.3369 16.3838C54.4881 16.6787 54.7255 16.8807 54.9581 16.8188C55.4638 16.6852 56.5323 15.9684 57.6348 14.7825C58.6008 13.7415 59.7571 11.9772 59.3261 11.4233C59.0952 11.1268 58.7293 10.9705 58.5813 10.7896C58.4333 10.6088 57.9552 9.81219 57.3519 9.81219C56.7485 9.81219 55.2232 11.3142 53.7514 13.5981C53.2897 14.2948 52.8845 15.0275 52.5399 15.7892C51.5934 16.7422 50.068 17.8744 49.5119 17.8647C49.0338 17.8647 49.5119 16.6575 50.1624 15.584C50.8763 14.3996 51.3007 13.9842 51.317 13.792C51.3381 13.4955 51.1983 13.2691 51.2178 13.199C52.9497 12.2542 55.0345 10.7554 55.4557 8.93249C55.9647 6.71533 53.3823 5.34854 48.6614 5.08789L48.7931 4.97385C48.702 4.4444 47.6222 2.24516 46.853 2.97824C46.2548 3.6227 45.7006 4.30683 45.1943 5.02598C41.2686 5.07485 37.3884 5.48538 36.0988 6.0132C34.8092 6.54102 34.5604 9.39677 35.4402 9.1459C37.3917 8.1147 40.2554 7.2464 43.9339 6.80818C43.1111 8.01695 42.2232 9.41469 41.4003 10.8434C40.9482 10.4687 40.2506 9.47008 39.5171 9.47008C38.8374 9.47008 37.2648 10.5078 35.4955 13.6079C34.921 14.5873 34.4724 15.6355 34.1604 16.7276C33.6416 17.5731 32.7293 18.3306 32.3536 18.3208C31.9015 18.3094 32.1829 17.1511 32.5927 16.3822C32.8914 15.7827 33.2628 15.2224 33.6985 14.7141C33.788 14.6147 33.4465 14.1357 32.9944 13.8083C33.3749 13.388 33.9229 12.2933 33.9343 11.8534C33.9473 11.3647 33.5684 11.2718 33.157 10.858C32.7456 10.4443 32.3699 9.60041 31.495 9.5776C30.6201 9.55479 28.7597 11.2409 27.0489 13.8132C26.57 14.5256 26.1387 15.269 25.7577 16.0385C25.7577 16.0206 25.7577 16.001 25.7577 15.9815C24.8145 17.6333 21.9865 19.585 21.0303 19.5801C20.331 19.5801 20.1846 18.6124 20.7912 17.0518C20.975 17.3988 21.2612 17.6366 21.5328 17.5617C22.1215 17.3988 23.3541 16.5549 24.6226 15.1604C25.7284 13.937 27.0408 11.8648 26.522 11.2197C26.2456 10.876 25.8146 10.6951 25.6374 10.485C25.4601 10.2748 24.8812 9.34464 24.1738 9.34464C23.4663 9.34464 21.7637 11.0144 20.1651 13.6095C20.0537 13.4762 19.9046 13.3797 19.7374 13.3326C19.6203 13.3082 19.1748 13.2674 18.4576 13.2251C19.4946 11.4464 20.7399 9.79802 22.167 8.31507C22.4776 7.89477 20.9734 5.184 20.2594 6.03438C19.2609 7.21708 17.2721 10.3319 15.9174 13.1273C15.2198 13.1078 14.4408 13.0948 13.5952 13.0899C15.384 9.40166 17.5355 5.42347 19.3845 3.55005C19.7781 3.05155 17.9388 -0.507964 16.9794 0.731757C15.7011 2.38363 12.7398 8.42585 10.8095 13.1013H10.694C10.0793 13.1225 9.42069 13.1632 8.72955 13.23C5.14211 13.5835 1.5937 14.2074 1.10746 14.859C0.679763 15.4292 0.619593 19.0734 0.95622 18.8861C3.23293 16.8351 6.54716 15.4651 10.1151 14.8379C8.03841 20.2138 6.97486 24.7573 6.71954 26.7301C6.45121 28.8039 7.78797 29.6494 7.9018 29.1166C8.55229 24.6709 10.9526 18.7069 12.5642 15.25L12.8715 14.5984C13.6792 14.5539 14.4891 14.518 15.3011 14.4909C14.4213 16.5826 13.6619 19.0148 13.4391 20.5347C13.2358 21.9211 14.7401 22.9783 14.7888 22.3381C14.862 20.784 16.0183 17.5926 17.7648 14.4355C18.4077 14.4279 19.049 14.4279 19.6886 14.4355C18.5698 16.4392 18.199 17.8842 18.2023 18.9838C18.2023 20.1959 19.0756 21.7744 20.0464 21.7712C21.227 21.7712 23.7623 19.8472 25.0389 18.2687C25.0275 19.0425 25.3999 20.8964 26.3399 20.9208C27.3367 20.9485 28.8052 19.4009 29.4297 18.6662C29.3549 19.1744 29.8883 20.6015 30.8478 20.6341C31.5454 20.6569 32.9423 19.5442 33.9376 18.4072C34.0644 19.4221 34.7734 20.261 35.2613 20.261C36.2257 20.261 37.8226 18.4593 38.0682 18.0764C37.9927 18.3099 37.9765 18.5585 38.021 18.7998C38.1056 19.3276 38.7105 20.3083 39.3659 20.2366C39.6667 19.08 40.5774 16.3627 42.885 12.3763C44.4787 9.62484 45.8561 7.87034 47.1132 6.56382L47.7637 6.53776C52.457 6.39277 53.1562 7.99414 52.8716 8.98136C52.4976 10.27 50.5201 12.3747 46.814 13.186C47.9962 11.381 48.7898 10.4899 49.8599 9.52547C50.0859 9.25667 49.0468 6.97435 48.3475 7.69277C47.362 8.71093 46.1277 10.6121 45.0251 12.505C43.3436 15.3901 42.5305 17.4281 42.3858 18.3795C42.2866 19.0311 42.8818 20.0085 43.503 19.9906C43.6656 19.1223 44.4023 17.1984 45.7927 14.8248C46.9181 14.5511 48.4418 14.1618 48.2906 14.3638C47.9653 14.802 47.0709 16.5565 46.7798 17.6904C46.5522 18.5815 47.0644 19.9857 47.9458 19.9857C48.6288 19.9857 50.4762 19.1288 52.0228 17.5877C52.0065 17.7343 51.9984 17.8777 51.9951 18.0145C51.9788 19.0523 52.7871 20.4076 53.6213 20.4109C54.571 20.4109 56.6884 18.979 57.9487 17.7148C57.4999 19.44 58.1113 20.9632 58.9505 20.9485C59.7896 20.9338 61.3898 19.6811 62.0939 18.7818C62.0045 20.4972 63.0534 23.1803 64.7333 23.0989C64.952 23.0873 65.1695 23.0584 65.3838 23.0125H65.4C65.7662 22.9398 66.1254 22.8352 66.4733 22.6997L66.6929 22.6215V22.6118C66.81 22.5629 66.9303 22.5091 67.0555 22.4489C67.7353 22.1231 68.6053 21.4633 69.3078 20.9013C70.6218 19.9417 72.0318 19.0001 72.4367 18.7297C74.4662 17.5763 75.7916 17.2147 76.8811 17.187C78.4439 17.1446 78.87 17.9689 78.9383 18.0683C79.0458 18.2705 79.09 18.5004 79.0652 18.7281C79.0652 18.904 79.553 18.992 79.5416 18.6368C79.2001 14.8265 77.7138 14.328 76.6275 14.3622ZM54.9597 15.1311C56.0867 13.2039 57.4657 11.873 57.7942 11.873C58.1959 11.873 58.0349 12.7298 57.0201 13.8115C56.0363 14.8607 55.3305 15.3315 54.8199 15.3706C54.8654 15.2973 54.9109 15.2158 54.9597 15.1311ZM21.497 15.5872C22.7703 13.3261 24.2795 11.8273 24.6616 11.8257C25.1332 11.8257 25.0389 12.7657 23.8778 14.038C22.7508 15.2728 21.9344 15.83 21.3376 15.8805C21.3897 15.7844 21.4385 15.6866 21.497 15.5872ZM31.6137 13.8295C31.5877 13.8702 31.5617 13.9109 31.534 13.9516C31.5345 13.9549 31.5345 13.9582 31.534 13.9614C30.8608 15.004 30.0786 16.3676 29.6102 17.0208C29.0736 17.7686 28.2068 18.5815 27.7547 18.5603C27.0375 18.5277 27.9319 16.3057 29.1971 14.5169C30.5388 12.6191 31.5779 11.8078 32.1243 11.8273C32.5195 11.842 32.4366 12.6288 31.6999 13.7334C31.6684 13.7628 31.6396 13.795 31.6137 13.8295V13.8295ZM40.0977 13.1778C38.9512 15.2582 38.3089 16.436 38.0877 16.6934C37.8063 17.0192 37.029 17.9608 36.6485 17.9787C36.2679 17.9966 36.2549 16.5337 37.5982 14.3052C38.8992 12.1548 39.8521 11.6693 40.2684 11.6693C40.623 11.6693 40.3351 12.7119 39.9952 13.3114C40.0261 13.2707 40.0619 13.2267 40.0977 13.1811V13.1778ZM62.3769 17.2342C62.1574 17.5356 61.128 18.5961 60.575 18.6043C60.0221 18.6124 60.4905 16.9263 61.6256 15.1669C62.8095 13.3293 63.7299 12.7054 64.1137 12.6875C64.4975 12.6696 64.4276 13.3766 64.1283 14.0103V14.025C63.1136 15.7583 62.5509 16.9915 62.372 17.2375L62.3769 17.2342Z" fill="#69AE88"/>
<path d="M57.7502 22.217C56.4492 21.8994 47.5896 20.8698 36.3979 21.5556C26.0243 22.191 17.0752 23.6474 14.3952 25.019C13.53 25.4622 13.4455 28.4857 14.3253 28.0621C16.3889 27.1319 23.2695 24.1524 36.5524 23.0267C49.6793 21.9238 55.0913 22.8068 57.7502 23.0267C57.9486 22.8442 58.2283 22.3343 57.7502 22.217Z" fill="#69AE88"/>
</g>
<defs>
<clipPath id="clip0_816_828">
<rect width="78.7984" height="28.8068" fill="white" transform="translate(0.736328 0.46582)"/>
</clipPath>
</defs>
</svg>
