<svg width="55" height="63" viewBox="0 0 55 63" fill="none" xmlns="http://www.w3.org/2000/svg">
<g clip-path="url(#clip0_326_845)">
<path d="M15.4668 58.1539H5.30675C3.97662 58.1539 2.89459 57.0669 2.89459 55.7308V5.33077C2.89459 3.99462 3.97662 2.90769 5.30675 2.90769H34.2527C35.5828 2.90769 36.6648 3.99462 36.6648 5.33077V30.5308C36.6648 31.3338 37.3127 31.9846 38.1121 31.9846C38.9116 31.9846 39.5594 31.3338 39.5594 30.5308V5.33077C39.5594 2.39123 37.179 0 34.2527 0H5.30675C2.38046 0 0 2.39123 0 5.33077V55.7308C0 58.6703 2.38046 61.0615 5.30675 61.0615H15.4668C16.2662 61.0615 16.9141 60.4108 16.9141 59.6077C16.9141 58.8046 16.2662 58.1539 15.4668 58.1539Z" fill="white"/>
<path d="M22.6742 6.78465C23.4737 6.78465 24.1215 6.13388 24.1215 5.3308C24.1215 4.52772 23.4737 3.87695 22.6742 3.87695H16.885C16.0856 3.87695 15.4377 4.52772 15.4377 5.3308C15.4377 6.13388 16.0856 6.78465 16.885 6.78465H22.6742Z" fill="white"/>
<path d="M40.7173 51.3691H29.7178C28.9183 51.3691 28.2705 52.0199 28.2705 52.823C28.2705 53.6261 28.9183 54.2768 29.7178 54.2768H40.7173C41.5167 54.2768 42.1645 53.6261 42.1645 52.823C42.1645 52.0199 41.5167 51.3691 40.7173 51.3691Z" fill="white"/>
<path d="M25.3953 44.5847H45.0399C45.8394 44.5847 46.4872 43.9339 46.4872 43.1308C46.4872 42.3278 45.8394 41.677 45.0399 41.677H25.3953C24.5958 41.677 23.948 42.3278 23.948 43.1308C23.948 43.9339 24.5958 44.5847 25.3953 44.5847Z" fill="white"/>
<path d="M48.3644 46.2462C47.7496 45.7325 46.8372 45.817 46.3258 46.4332C46.1576 46.6367 45.9743 46.8305 45.7799 47.0105C45.3085 47.0285 44.8344 47.0465 44.3602 47.0659C43.7358 47.0909 43.1114 47.1144 42.4953 47.1379C41.6972 47.167 41.0728 47.8427 41.1031 48.6444C41.1321 49.4281 41.7744 50.0442 42.549 50.0442C42.5669 50.0442 42.5849 50.0442 42.6042 50.0442C43.2217 50.0207 43.8475 49.9972 44.4746 49.9722C45.0067 49.9515 45.5373 49.9307 46.0653 49.9113C46.6166 49.8905 47.1418 49.6829 47.5456 49.3284C47.9082 49.0113 48.2459 48.6624 48.5519 48.2941C49.0632 47.6765 48.9792 46.7599 48.3658 46.2462H48.3644Z" fill="white"/>
<path d="M29.3306 48.6444C29.3595 47.8427 28.7365 47.167 27.9384 47.1379C27.3237 47.1144 26.6992 47.0908 26.0762 47.0659C25.6007 47.0479 25.1251 47.0285 24.6551 47.0105C24.4608 46.8291 24.2774 46.6353 24.1093 46.4331C23.5979 45.8156 22.6854 45.7325 22.0707 46.2462C21.4559 46.7599 21.3732 47.6765 21.8846 48.294C22.1906 48.6624 22.5283 49.0113 22.8908 49.3284C23.2947 49.6828 23.8212 49.8891 24.3725 49.9113C24.8991 49.9307 25.4325 49.9514 25.9646 49.9736C26.5904 49.9985 27.2161 50.022 27.8323 50.0456C27.8502 50.0456 27.8681 50.0456 27.8874 50.0456C28.6621 50.0456 29.3044 49.4294 29.3333 48.6457L29.3306 48.6444Z" fill="white"/>
<path d="M54.7781 40.3878L54.4955 39.6401C54.4914 39.6304 54.4886 39.6221 54.4845 39.6124C54.0034 38.4119 52.858 37.7155 51.6933 37.9218C51.6244 37.9342 51.5527 37.9467 51.4769 37.9592C51.3253 37.9855 51.1612 38.0132 50.9944 38.0464C50.9724 38.0492 50.9517 38.0519 50.931 38.0561C50.5851 38.1156 49.9455 38.2776 48.9448 38.5352L47.736 35.8449C46.9462 34.0878 45.2122 32.9524 43.3169 32.9524H27.1196C25.2257 32.9524 23.4903 34.0878 22.7005 35.8449L21.4917 38.5352C20.491 38.2776 19.8514 38.117 19.504 38.0561C19.4834 38.0519 19.4613 38.0492 19.4406 38.0464C19.2725 38.0132 19.1085 37.9855 18.9568 37.9592C18.881 37.9467 18.8093 37.9342 18.7363 37.9204C17.5771 37.7141 16.4303 38.4105 15.9492 39.611C15.9451 39.6207 15.9423 39.629 15.9382 39.6387L15.6584 40.3781C15.1429 41.7059 15.5412 43.2401 16.6039 44.0252C16.6701 44.075 16.7418 44.1179 16.8148 44.1553L18.0058 44.7521L17.4668 45.5815C16.9375 46.3956 16.6591 47.3427 16.6591 48.3202V55.5036C16.6591 56.5822 17.1112 57.5916 17.8803 58.3005V60.3082C17.8803 61.7898 19.0781 62.9958 20.5502 62.9958H24.3325C25.6874 62.9958 26.8136 61.9892 26.9817 60.6433L27.2574 59.1189H43.1763L43.452 60.6433C43.6188 61.9892 44.7463 62.9958 46.0998 62.9958H49.8821C51.3542 62.9958 52.552 61.7898 52.552 60.3082V58.3005C53.3212 57.5916 53.7746 56.5836 53.7746 55.5036V48.3202C53.7746 47.3427 53.4948 46.3956 52.9669 45.5815L52.428 44.7507L53.6189 44.1539C53.6933 44.1165 53.7636 44.0736 53.8312 44.0238C54.8911 43.2401 55.2895 41.7101 54.7795 40.3836L54.7781 40.3878ZM52.0916 41.6741L49.6822 42.8815C49.3128 43.067 49.0399 43.4007 48.9324 43.8009C48.8249 44.201 48.891 44.6289 49.1171 44.9764L50.5423 47.1724C50.7643 47.513 50.88 47.9104 50.88 48.323V55.5064C50.88 55.8982 50.6416 56.1655 50.4183 56.2873C49.9496 56.5407 49.6574 57.0322 49.6574 57.5681V60.0922H46.2928L46.1178 59.123H46.2156C47.0151 59.123 47.6629 58.4722 47.6629 57.6692C47.6629 56.8661 47.0151 56.2153 46.2156 56.2153H44.5381C44.4871 56.2098 44.4348 56.2056 44.3824 56.2056H26.05C25.9976 56.2056 25.9452 56.2098 25.8942 56.2153H24.2167C23.4173 56.2153 22.7694 56.8661 22.7694 57.6692C22.7694 58.4722 23.4173 59.123 24.2167 59.123H24.3146L24.1395 60.0922H20.7749V57.5681C20.7749 57.0336 20.4827 56.5421 20.014 56.2887C19.7908 56.1682 19.5537 55.8996 19.5537 55.5092V48.3258C19.5537 47.9145 19.6708 47.5158 19.8914 47.1752L21.3166 44.9792C21.5427 44.6316 21.6088 44.2038 21.5013 43.8036C21.3938 43.4035 21.1209 43.0684 20.7515 42.8842L18.3421 41.6755C18.3283 41.6132 18.3242 41.5162 18.36 41.4249L18.5778 40.8475C18.6563 40.8613 18.739 40.8752 18.8231 40.8918C18.921 40.9181 19.0092 40.9319 19.0823 40.9389C19.4172 41.0067 20.2125 41.2116 20.921 41.3944C21.2711 41.4844 21.6267 41.5758 21.9576 41.6589C22.6371 41.8305 23.3401 41.4885 23.6282 40.8475L25.3373 37.0453C25.6599 36.3281 26.3587 35.8642 27.1182 35.8642H43.3155C44.075 35.8642 44.7738 36.3281 45.0964 37.0453L46.8056 40.8475C47.0936 41.4885 47.798 41.8305 48.4762 41.6589C48.8083 41.5758 49.1667 41.483 49.5182 41.393C50.2239 41.2116 51.0165 41.0067 51.3501 40.9389C51.4231 40.9319 51.5113 40.9181 51.6092 40.8918C51.6933 40.8765 51.7746 40.8613 51.8546 40.8475L52.0723 41.4249C52.0723 41.4249 52.0751 41.4332 52.0779 41.4373C52.1096 41.5204 52.1054 41.6145 52.0916 41.6755V41.6741Z" fill="white"/>
<path d="M8.28127 23.0801C7.71614 23.6478 7.71614 24.5685 8.28127 25.1362L15.6873 32.5758C15.9588 32.8485 16.3269 33.0022 16.71 33.0022C17.0932 33.0022 17.4626 32.8485 17.7328 32.5758L32.5462 17.6953C33.1114 17.1276 33.1114 16.2068 32.5462 15.6391C31.9811 15.0715 31.0645 15.0715 30.4993 15.6391L16.71 29.4908L10.3268 23.0787C9.76165 22.511 8.84503 22.511 8.27989 23.0787L8.28127 23.0801Z" fill="white"/>
</g>
<defs>
<clipPath id="clip0_326_845">
<rect width="55" height="63" fill="white"/>
</clipPath>
</defs>
</svg>
