<svg width="75" height="59" viewBox="0 0 75 59" fill="none" xmlns="http://www.w3.org/2000/svg">
<g clip-path="url(#clip0_326_854)">
<path d="M57.2806 23.3918C47.5119 23.3918 39.5654 31.3785 39.5654 41.1966C39.5654 51.0148 47.5119 59.0014 57.2806 59.0014C67.0493 59.0014 74.9958 51.0148 74.9958 41.1966C74.9958 31.3785 67.0493 23.3918 57.2806 23.3918ZM57.2806 56.1398C49.0819 56.1398 42.4127 49.4368 42.4127 41.1966C42.4127 32.9565 49.0819 26.2535 57.2806 26.2535C65.4793 26.2535 72.1485 32.9565 72.1485 41.1966C72.1485 49.4368 65.4793 56.1398 57.2806 56.1398Z" fill="white"/>
<path d="M37.5344 46.7822H7.40672C5.53568 46.7822 4.0131 45.2151 4.0131 43.2896V30.7516C4.0131 29.5606 4.3507 28.4173 4.99064 27.4417L10.6865 18.7028C10.94 18.3212 11.1623 17.9165 11.3454 17.5064L16.3972 6.31058C17.3368 4.21477 19.4044 2.86163 21.6618 2.86163H53.3487C55.6008 2.86163 57.6616 4.21614 58.6039 6.31466L63.6543 17.5077C63.6584 17.5186 63.6638 17.5282 63.6693 17.5391C63.836 17.8879 64.0435 18.2981 64.3079 18.696L68.3929 24.9534C68.8241 25.6143 69.7067 25.7983 70.3643 25.3649C71.0219 24.9316 71.2049 24.0445 70.7738 23.3836L66.6833 17.118C66.5138 16.8618 66.3646 16.5675 66.2413 16.3113L65.5091 14.6897C66.4934 14.5725 67.5198 14.4444 68.4404 14.3245C68.4512 14.3231 68.4621 14.3218 68.4729 14.3204H68.4851C68.5272 14.315 68.5936 14.3095 68.6736 14.2945C69.0424 14.2414 69.4003 14.1978 69.7474 14.1555C69.8966 14.1378 70.0416 14.1201 70.1813 14.1024C70.1867 14.1024 70.1935 14.101 70.1989 14.0997C70.6951 14.0302 71.1778 14.2659 71.3934 14.6747L72.0387 15.9257C72.2855 16.3931 72.1133 16.9245 71.632 17.1998L71.0151 17.4982C70.3074 17.8416 70.0091 18.696 70.3508 19.4087C70.5962 19.9197 71.1046 20.2181 71.6347 20.2181C71.8422 20.2181 72.0523 20.1731 72.2516 20.0764L72.9038 19.7602C72.9228 19.7507 72.9417 19.7412 72.9607 19.7303C74.8399 18.7123 75.5395 16.4516 74.5606 14.5957L73.9138 13.3434C73.1356 11.869 71.4896 11.0336 69.8179 11.2626C69.6864 11.2789 69.5495 11.2953 69.4071 11.313C69.0519 11.3552 68.6506 11.4043 68.237 11.4642C68.2289 11.4642 68.2208 11.467 68.2126 11.4683C68.1625 11.4738 68.1096 11.4792 68.054 11.4874C66.8622 11.6427 65.4915 11.8104 64.2726 11.9521L61.1962 5.13594C59.7984 2.0154 56.7166 0 53.3474 0H21.6605C18.2845 0 15.1986 2.0154 13.8008 5.13186L10.7231 11.9521C9.50553 11.8117 8.13479 11.6427 6.94167 11.4874C6.88608 11.4792 6.8332 11.4738 6.78304 11.4683C6.7749 11.4683 6.76677 11.4656 6.75863 11.4642C6.34511 11.4043 5.94379 11.3552 5.58856 11.313C5.4462 11.2966 5.30926 11.2789 5.17775 11.2626C3.50602 11.035 1.86141 11.8703 1.07639 13.3556L0.44186 14.5848C-0.542466 16.4516 0.157138 18.7123 2.03631 19.7303C2.05529 19.7412 2.07427 19.7507 2.09325 19.7602L2.7454 20.0764C2.94471 20.1731 3.15486 20.2181 3.3623 20.2181C3.89243 20.2181 4.40086 19.9197 4.64626 19.4087C4.98793 18.6973 4.69101 17.8416 3.98191 17.4982L3.36501 17.1998C2.88234 16.9245 2.71151 16.3931 2.96369 15.9148L3.59686 14.687C3.81921 14.2673 4.30189 14.0315 4.79812 14.0997C4.80354 14.0997 4.81032 14.101 4.81574 14.1024C4.95404 14.1201 5.09911 14.1378 5.2496 14.1555C5.5967 14.1978 5.95463 14.24 6.32342 14.2945C6.40341 14.3082 6.46984 14.315 6.51187 14.3191H6.52408C6.53492 14.3218 6.54577 14.3231 6.55662 14.3245C7.47722 14.4444 8.50358 14.5711 9.4879 14.6897L8.74627 16.3317C8.62696 16.5988 8.47782 16.8714 8.30698 17.1275L2.60711 25.8719C1.66074 27.3122 1.1618 28.9992 1.1618 30.753V43.291C1.1618 46.7945 3.96157 49.6452 7.40265 49.6452H37.5304C38.3167 49.6452 38.954 49.0047 38.954 48.2144C38.954 47.424 38.3167 46.7836 37.5304 46.7836L37.5344 46.7822Z" fill="white"/>
<path d="M26.4441 39.7644C25.6577 39.7644 25.0205 40.4049 25.0205 41.1952C25.0205 41.9856 25.6577 42.626 26.4441 42.626H36.3348C37.1212 42.626 37.7585 41.9856 37.7585 41.1952C37.7585 40.4049 37.1212 39.7644 36.3348 39.7644H26.4441Z" fill="white"/>
<path d="M62.8357 20.1432C62.8357 19.3529 62.1985 18.7124 61.4121 18.7124H13.5977C12.8113 18.7124 12.1741 19.3529 12.1741 20.1432C12.1741 20.9336 12.8113 21.574 13.5977 21.574H61.4135C62.1998 21.574 62.8371 20.9336 62.8371 20.1432H62.8357Z" fill="white"/>
<path d="M15.8549 51.4604C15.0685 51.4604 14.4313 52.1008 14.4313 52.8912V53.8001H6.45636V52.5873C6.45636 51.797 5.81912 51.1565 5.03274 51.1565C4.24637 51.1565 3.60913 51.797 3.60913 52.5873V54.0031C3.60913 55.4694 4.78598 56.6617 6.23129 56.6617H14.6564C16.1017 56.6617 17.2785 55.4694 17.2785 54.0031V52.8925C17.2785 52.1022 16.6413 51.4617 15.8549 51.4617V51.4604Z" fill="white"/>
<path d="M16.7744 31.3717C15.5257 31.3131 14.2756 31.2545 13.0377 31.1986C12.8778 31.1918 12.7313 31.1223 12.6147 30.9997C11.9409 30.2897 11.3104 29.5116 10.741 28.6858C10.2922 28.0372 9.40549 27.875 8.76012 28.3261C8.11475 28.7758 7.95341 29.6683 8.40218 30.317C9.05569 31.264 9.78106 32.1593 10.5566 32.9755C11.1816 33.6337 12.0168 34.018 12.9116 34.0589C14.1482 34.1147 15.3955 34.1733 16.6429 34.2319C18.1505 34.3028 19.6582 34.3737 21.1456 34.4404C21.1673 34.4404 21.1889 34.4418 21.2093 34.4418C21.9658 34.4418 22.5963 33.8422 22.6302 33.0737C22.6654 32.2847 22.0567 31.6156 21.2716 31.5815C19.787 31.5148 18.2807 31.4439 16.7757 31.373L16.7744 31.3717Z" fill="white"/>
<path d="M63.5214 47.4336H55.4814C56.0671 46.6569 56.4196 45.8965 56.5715 45.1061C56.7355 44.2572 56.6488 43.4559 56.4481 42.6642H60.8098C61.5582 42.6642 62.1656 42.0537 62.1656 41.3015C62.1656 40.5493 61.5582 39.9389 60.8098 39.9389H55.5085C55.4001 39.635 55.2916 39.3202 55.1899 38.9904C54.6828 37.347 54.7398 35.9298 55.3472 35.1013C55.8841 34.3696 56.7708 34.2156 57.4202 34.2156C59.4648 34.2156 60.1509 35.3957 60.2498 35.5905C60.2837 35.675 60.3081 35.7105 60.3597 35.7895L60.6308 36.1983C61.0457 36.8251 61.8877 36.9941 62.5113 36.5758C63.135 36.1588 63.3031 35.3126 62.8869 34.6857L62.6591 34.3423C62.3405 33.7373 60.9223 31.4902 57.4202 31.4902C55.6184 31.4902 54.1066 32.1988 53.1643 33.4852C52.0241 35.0414 51.8234 37.283 52.6003 39.7985C52.6152 39.8462 52.6301 39.8925 52.6464 39.9402H51.1835C50.435 39.9402 49.8276 40.5507 49.8276 41.3029C49.8276 42.0551 50.435 42.6656 51.1835 42.6656H53.6185C53.8761 43.4191 54.0171 44.0337 53.91 44.5897C53.7405 45.4673 52.9121 46.462 51.3014 47.7211C50.8445 48.0782 50.6628 48.6886 50.8513 49.2392C51.0397 49.7897 51.555 50.159 52.1339 50.159H63.5228C64.2712 50.159 64.8786 49.5485 64.8786 48.7963C64.8786 48.0441 64.2712 47.4336 63.5228 47.4336H63.5214Z" fill="white"/>
</g>
<defs>
<clipPath id="clip0_326_854">
<rect width="75" height="59" fill="white"/>
</clipPath>
</defs>
</svg>
