<svg width="185" height="33" viewBox="0 0 185 33" fill="none" xmlns="http://www.w3.org/2000/svg">
<path d="M16.5 0L20.2045 11.4012H32.1924L22.494 18.4476L26.1985 29.8488L16.5 22.8024L6.80154 29.8488L10.506 18.4476L0.807568 11.4012H12.7955L16.5 0Z" fill="#FFC224"/>
<path d="M54.5 0L58.2045 11.4012H70.1924L60.494 18.4476L64.1985 29.8488L54.5 22.8024L44.8015 29.8488L48.506 18.4476L38.8076 11.4012H50.7955L54.5 0Z" fill="#FFC224"/>
<path d="M92.5 0L96.2045 11.4012H108.192L98.494 18.4476L102.198 29.8488L92.5 22.8024L82.8015 29.8488L86.506 18.4476L76.8076 11.4012H88.7955L92.5 0Z" fill="#FFC224"/>
<path d="M130.5 0L134.204 11.4012H146.192L136.494 18.4476L140.198 29.8488L130.5 22.8024L120.802 29.8488L124.506 18.4476L114.808 11.4012H126.796L130.5 0Z" fill="#FFC224"/>
<path d="M168.5 0L172.204 11.4012H184.192L174.494 18.4476L178.198 29.8488L168.5 22.8024L158.802 29.8488L162.506 18.4476L152.808 11.4012H164.796L168.5 0Z" fill="#FFC224"/>
</svg>
