<svg width="448" height="448" viewBox="0 0 448 448" fill="none" xmlns="http://www.w3.org/2000/svg">
<path d="M352 192C405 192 448 149 448 96C448 43 405 0 352 0C299 0 256 43 256 96C256 100 256.2 104 256.7 107.9L162.6 154.9C145.4 138.2 121.9 128 96 128C43 128 0 171 0 224C0 277 43 320 96 320C121.9 320 145.4 309.8 162.6 293.1L256.7 340.1C256.2 344 256 347.9 256 352C256 405 299 448 352 448C405 448 448 405 448 352C448 299 405 256 352 256C326.1 256 302.6 266.2 285.4 282.9L191.3 235.9C191.8 232 192 228.1 192 224C192 219.9 191.8 216 191.3 212.1L285.4 165.1C302.6 181.8 326.1 192 352 192Z" fill="#747575"/>
</svg>
