<svg width="27" height="27" viewBox="0 0 27 27" fill="none" xmlns="http://www.w3.org/2000/svg">
<g clip-path="url(#clip0_326_832)">
<path d="M14.2059 2.18597L15.3473 1.35108H13.9359L13.5002 0L13.0638 1.35108H11.6531L12.7945 2.18597L12.3588 3.53704L13.5002 2.70215L14.6416 3.53704L14.2059 2.18597Z" fill="white"/>
<path d="M14.2059 25.6489L15.3473 24.814H13.9359L13.5002 23.4629L13.0638 24.814H11.6531L12.7945 25.6489L12.3588 26.9999L13.5002 26.165L14.6416 26.9999L14.2059 25.6489Z" fill="white"/>
<path d="M8.52672 3.78069L9.66814 2.9458H8.25673L7.82101 1.59473L7.38464 2.9458H5.97388L7.11531 3.78134L6.67893 5.13242L7.82101 4.29688L8.96244 5.13242L8.52672 3.78069Z" fill="white"/>
<path d="M20.1786 24.1003L21.32 23.2654H19.9086L19.4729 21.9143L19.0371 23.2654H17.6257L18.7672 24.1003L18.3314 25.4513L19.4729 24.6165L20.6143 25.4513L20.1786 24.1003Z" fill="white"/>
<path d="M4.28282 7.8178L5.42425 6.98291H4.01349L3.57711 5.63184L3.14139 6.98291H1.72998L2.87141 7.8178L2.43569 9.16888L3.57711 8.33399L4.71919 9.16888L4.28282 7.8178Z" fill="white"/>
<path d="M24.4653 19.5492L25.6074 18.7144H24.1959L23.7602 17.3633L23.3238 18.7144H21.9131L23.0545 19.5492L22.6181 20.9003L23.7602 20.0654L24.9016 20.9003L24.4653 19.5492Z" fill="white"/>
<path d="M2.55284 13.9174L3.69427 13.0825H2.2835L1.84713 11.7314L1.41141 13.0825H0L1.14143 13.9174L0.705705 15.2685L1.84713 14.4336L2.98921 15.2685L2.55284 13.9174Z" fill="white"/>
<path d="M25.8585 13.9174L26.9999 13.0825H25.5885L25.1528 11.7314L24.7164 13.0825H23.3057L24.4471 13.9174L24.0107 15.2685L25.1528 14.4336L26.2942 15.2685L25.8585 13.9174Z" fill="white"/>
<path d="M4.51646 19.4892L5.65789 18.6543H4.24648L3.81076 17.3032L3.37438 18.6543H1.96362L3.10505 19.4892L2.66933 20.8403L3.81076 20.0054L4.95218 20.8403L4.51646 19.4892Z" fill="white"/>
<path d="M24.6991 7.75774L25.8412 6.92285H24.4297L23.994 5.57178L23.5576 6.92285H22.1462L23.2883 7.75774L22.8519 9.10882L23.994 8.27393L25.1355 9.10882L24.6991 7.75774Z" fill="white"/>
<path d="M8.29307 23.5256L9.4345 22.6907H8.02374L7.58737 21.3396L7.15164 22.6907H5.74023L6.88166 23.5262L6.44594 24.8773L7.58737 24.0418L8.7288 24.8773L8.29307 23.5256Z" fill="white"/>
<path d="M19.945 3.20672L21.0864 2.37183H19.6757L19.2393 1.02075L18.8036 2.37183H17.3928L18.5342 3.20672L18.0985 4.55779L19.24 3.7229L20.3814 4.55779L19.945 3.20672Z" fill="white"/>
</g>
<defs>
<clipPath id="clip0_326_832">
<rect width="27" height="27" fill="white"/>
</clipPath>
</defs>
</svg>
