<svg width="86" height="110" viewBox="0 0 86 110" fill="none" xmlns="http://www.w3.org/2000/svg">
<g clip-path="url(#clip0_810_637)">
<path d="M51.8761 104.378H8.79545C6.10063 104.378 3.90909 102.185 3.90909 99.4889V8.8C3.90909 6.10378 6.10063 3.91111 8.79545 3.91111H60.1023C62.7971 3.91111 64.9886 6.10378 64.9886 8.8V71.6491C64.9886 72.7296 65.8633 73.6047 66.9432 73.6047C68.0231 73.6047 68.8977 72.7296 68.8977 71.6491V8.8C68.8977 3.94778 64.952 0 60.1023 0H8.79545C3.94574 0 0 3.94778 0 8.8V99.4889C0 104.341 3.94574 108.289 8.79545 108.289H51.8761C52.956 108.289 53.8306 107.414 53.8306 106.333C53.8306 105.253 52.956 104.378 51.8761 104.378Z" fill="#25AAE1"/>
<path d="M39.5795 10.7556C40.6594 10.7556 41.5341 9.88048 41.5341 8.80004C41.5341 7.71959 40.6594 6.84448 39.5795 6.84448H29.3182C28.2383 6.84448 27.3636 7.71959 27.3636 8.80004C27.3636 9.88048 28.2383 10.7556 29.3182 10.7556H39.5795Z" fill="#25AAE1"/>
<path d="M75.4601 62.2575C74.9055 61.3311 73.7035 61.0304 72.7775 61.5853C71.8515 62.1402 71.551 63.3429 72.1056 64.2693L80.9011 78.9409C81.7684 80.3733 82.174 82.0307 82.0762 83.7247L80.5541 107.92C80.4857 108.998 81.3042 109.927 82.3816 109.995C82.4232 109.998 82.4647 110 82.5062 110C83.5299 110 84.3899 109.203 84.4559 108.167L85.978 83.9618C86.1222 81.4635 85.5236 79.0264 84.2482 76.9218L75.4577 62.2575H75.4601Z" fill="#FFC224"/>
<path d="M71.2432 78.9213C70.2781 78.4349 69.1029 78.8211 68.6168 79.7866C68.2601 80.4931 67.8081 81.1115 67.3365 81.6444L57.4539 65.5795C56.4522 63.9491 54.4048 63.3649 52.6945 64.2204C48.7415 66.198 46.9311 70.9622 48.5729 75.0664L52.416 84.678C52.741 85.492 52.846 86.3598 52.7165 87.186C52.1302 90.9382 51.4339 100.212 57.598 105.25C57.9449 105.534 58.1453 105.945 58.1453 106.377V108.047C58.1453 109.127 59.0199 110.002 60.0998 110.002C61.1797 110.002 62.0544 109.127 62.0544 108.047V106.377C62.0544 104.766 61.3312 103.251 60.0705 102.222C55.4724 98.4646 56.0954 90.8795 56.5768 87.7898C56.8137 86.2693 56.6305 84.6927 56.0441 83.226L52.201 73.6144C51.3361 71.4535 52.2328 68.9529 54.2435 67.8235L66.9847 88.5378C67.5515 89.4569 68.7536 89.7453 69.6747 89.1782C70.5933 88.6111 70.8816 87.4084 70.3148 86.4869L69.4523 85.0862C70.5689 84.0131 71.4606 82.83 72.1056 81.5491C72.5918 80.586 72.2058 79.4078 71.2407 78.9213H71.2432Z" fill="#FFC224"/>
<path d="M20.5007 82.0893C21.2484 81.3291 22.2549 80.9111 23.3324 80.9111H44.8812C45.9611 80.9111 46.8358 80.036 46.8358 78.9556C46.8358 77.8751 45.9611 77 44.8812 77H23.3324C21.2044 77 19.2132 77.8287 17.7253 79.3344C16.2203 80.8231 15.392 82.8153 15.392 84.9444C15.392 89.3249 18.9542 92.8889 23.3324 92.8889H45.5653C46.4889 92.8889 47.3635 92.7373 48.1624 92.4416C49.1739 92.0651 49.6894 90.9407 49.3132 89.9262C48.9369 88.9142 47.8106 88.3984 46.7991 88.7749C46.4376 88.9093 46.0222 88.9778 45.5653 88.9778H23.3324C21.1091 88.9778 19.3011 87.1689 19.3011 84.9444C19.3011 83.8664 19.7189 82.8593 20.4787 82.1113C20.4861 82.104 20.4934 82.0967 20.5007 82.0893Z" fill="#25AAE1"/>
<path d="M26.7528 55.2445H42.1449C43.2248 55.2445 44.0994 54.3694 44.0994 53.2889C44.0994 52.2085 43.2248 51.3334 42.1449 51.3334H26.7528C25.673 51.3334 24.7983 52.2085 24.7983 53.2889C24.7983 54.3694 25.673 55.2445 26.7528 55.2445Z" fill="#2BB673"/>
<path d="M46.6257 41.5555C47.7056 41.5555 48.5802 40.6804 48.5802 39.6C48.5802 38.5195 47.7056 37.6444 46.6257 37.6444H22.2721C21.1922 37.6444 20.3175 38.5195 20.3175 39.6C20.3175 40.6804 21.1922 41.5555 22.2721 41.5555H46.6257Z" fill="#2BB673"/>
<path d="M44.7811 49.2531C45.6655 49.2213 46.5622 49.1846 47.4588 49.1504C48.182 49.1211 48.9052 49.0942 49.6235 49.0673C50.3784 49.038 51.0967 48.7568 51.6513 48.2728C52.1546 47.8328 52.6261 47.3513 53.0512 46.838C53.7427 46.0068 53.6303 44.7748 52.7996 44.0831C51.9689 43.3937 50.7375 43.5037 50.0461 44.3348C49.8018 44.6282 49.5379 44.9068 49.257 45.166C48.6095 45.1904 47.9572 45.2148 47.3049 45.2417C46.4107 45.276 45.5165 45.3126 44.6345 45.3444C43.5546 45.3835 42.7141 46.2904 42.7532 47.3708C42.7923 48.4268 43.6597 49.2555 44.7053 49.2555C44.7298 49.2555 44.7542 49.2555 44.7786 49.2555L44.7811 49.2531Z" fill="#2BB673"/>
<path d="M18.8491 44.3374C18.1577 43.5087 16.9264 43.3938 16.0957 44.0856C15.265 44.7774 15.1551 46.0094 15.844 46.8405C16.2691 47.3514 16.7407 47.8354 17.244 48.2754C17.7961 48.7594 18.5169 49.0405 19.2718 49.0698C19.9901 49.0967 20.7133 49.126 21.4365 49.1529C22.3331 49.1872 23.2298 49.2238 24.1118 49.2556C24.1362 49.2556 24.1606 49.2556 24.1851 49.2556C25.2307 49.2556 26.0981 48.4269 26.1372 47.3709C26.1763 46.2905 25.3358 45.3836 24.2559 45.3445C23.3739 45.3127 22.4822 45.276 21.588 45.2418C20.9356 45.2174 20.2809 45.1905 19.6334 45.166C19.3524 44.9069 19.0861 44.6283 18.8443 44.3349L18.8491 44.3374Z" fill="#2BB673"/>
<path d="M60.4663 40.9126C61.9102 39.8371 62.4526 37.7446 61.7612 35.9504L61.3678 34.9066C61.3605 34.8871 61.3532 34.87 61.3459 34.8504C60.6642 33.198 59.1299 32.2788 57.5247 32.5575L57.2266 32.6088C57.0092 32.6455 56.7747 32.6846 56.5255 32.7335C56.523 32.7335 56.5206 32.7335 56.5157 32.7335C56.4888 32.7384 56.4595 32.7408 56.4326 32.7482C55.9269 32.8411 54.8616 33.1075 53.6156 33.4228L51.9005 29.6486C50.8231 27.2286 48.4239 25.6666 45.7877 25.6666H23.1101C20.4739 25.6666 18.0747 27.2311 17.0045 29.6364L15.2845 33.4228C14.0385 33.11 12.9733 32.8411 12.4676 32.7482C12.4407 32.7433 12.4138 32.7384 12.3869 32.736C12.382 32.736 12.3796 32.736 12.3747 32.736C12.1255 32.6895 11.891 32.648 11.6711 32.6113L11.3706 32.56C9.76784 32.2788 8.23352 33.2004 7.55187 34.8528C7.54455 34.8724 7.53722 34.8895 7.52989 34.9091L7.14142 35.9382C6.44511 37.7471 6.98506 39.8395 8.43142 40.9151C8.5267 40.986 8.62687 41.0471 8.73437 41.1008L10.4666 41.9564L9.67989 43.1615C8.94204 44.264 8.55114 45.5668 8.55114 46.9284V56.9042C8.55114 58.3904 9.18636 59.7813 10.2614 60.7566V63.5604C10.2614 65.582 11.9056 67.2271 13.9261 67.2271H19.2278C21.0993 67.2271 22.6507 65.8337 22.8609 63.9784L23.1394 62.0937H45.7608C45.9391 63.1375 46.9189 63.8537 47.9719 63.6973C48.8294 63.5702 49.4744 62.9053 49.6137 62.0937H49.8434C50.9232 62.0937 51.7979 61.2186 51.7979 60.1382C51.7979 59.0577 50.9232 58.1826 49.8434 58.1826H19.0593C17.9794 58.1826 17.1047 59.0577 17.1047 60.1382C17.1047 61.2186 17.9794 62.0937 19.0593 62.0937H19.1888L19.008 63.316H14.1729V59.7617C14.1729 59.0455 13.7795 58.3855 13.1492 58.0433C12.7314 57.816 12.4627 57.3686 12.4627 56.9042V46.9284C12.4627 46.3417 12.6264 45.7917 12.9318 45.3346C12.9366 45.3273 12.9415 45.32 12.9464 45.3126L14.9474 42.2497C15.2528 41.7804 15.3432 41.2035 15.1966 40.6633C15.05 40.1231 14.6762 39.6733 14.1753 39.4264L10.7793 37.752C10.75 37.6542 10.7378 37.488 10.7964 37.3364L11.1165 36.4882C11.2484 36.5102 11.3852 36.5346 11.5294 36.5615C11.6295 36.5884 11.7395 36.608 11.8543 36.6226C12.3307 36.7204 13.4668 37.0064 14.4783 37.2606C14.9669 37.3828 15.4629 37.5075 15.9198 37.6224C16.8335 37.8497 17.779 37.3902 18.1675 36.5322L20.5667 31.2473C21.0163 30.2377 22.0155 29.5826 23.1076 29.5826H45.7852C46.8798 29.5826 47.8766 30.2353 48.3335 31.2595L50.7278 36.5297C51.1163 37.3877 52.0618 37.8448 52.9755 37.62C53.4348 37.5075 53.9308 37.3804 54.4194 37.2582C55.4285 37.004 56.5645 36.718 57.041 36.6202C57.1558 36.608 57.2657 36.5884 57.3659 36.5615C57.5101 36.5346 57.6469 36.5102 57.7788 36.4882L58.1038 37.3511C58.1575 37.4928 58.1453 37.6542 58.1135 37.752L54.7175 39.4264C54.2167 39.6733 53.8428 40.1255 53.6963 40.6633C53.5497 41.2035 53.6401 41.7804 53.9455 42.2497L55.9464 45.3126C55.9464 45.3126 55.9562 45.3273 55.9611 45.3346C56.2689 45.7917 56.4302 46.3417 56.4302 46.9284V56.9042C56.4302 57.288 56.2445 57.6693 55.9366 57.9211C55.0986 58.6031 54.974 59.8351 55.6557 60.6711C56.3373 61.5071 57.5687 61.6342 58.4043 60.9522C59.6332 59.95 60.3393 58.476 60.3393 56.9042V46.9284C60.3393 45.5668 59.9484 44.264 59.2105 43.1615L58.4238 41.9564L60.156 41.1008C60.2635 41.0495 60.3637 40.986 60.459 40.9151L60.4663 40.9126ZM13.0539 33C13.1126 33.0366 13.1712 33.0782 13.2298 33.1246C13.1736 33.0806 13.115 33.0366 13.0539 33ZM55.6728 33.1246C55.729 33.0782 55.7876 33.0391 55.8438 33.0024C55.7852 33.0391 55.7265 33.0806 55.6728 33.1246Z" fill="#2BB673"/>
</g>
<defs>
<clipPath id="clip0_810_637">
<rect width="86" height="110" fill="white"/>
</clipPath>
</defs>
</svg>
