<svg width="87" height="110" viewBox="0 0 87 110" fill="none" xmlns="http://www.w3.org/2000/svg">
<g clip-path="url(#clip0_810_629)">
<path d="M52.4793 104.378H8.89773C6.17156 104.378 3.95455 102.185 3.95455 99.4889V8.8C3.95455 6.10378 6.17156 3.91111 8.89773 3.91111H60.8011C63.5273 3.91111 65.7443 6.10378 65.7443 8.8V71.6491C65.7443 72.7296 66.6291 73.6047 67.7216 73.6047C68.814 73.6047 69.6989 72.7296 69.6989 71.6491V8.8C69.6989 3.94778 65.7072 0 60.8011 0H8.89773C3.99162 0 0 3.94778 0 8.8V99.4889C0 104.341 3.99162 108.289 8.89773 108.289H52.4793C53.5717 108.289 54.4566 107.414 54.4566 106.333C54.4566 105.253 53.5717 104.378 52.4793 104.378Z" fill="#25AAE1"/>
<path d="M40.0398 10.7556C41.1322 10.7556 42.0171 9.88048 42.0171 8.80004C42.0171 7.71959 41.1322 6.84448 40.0398 6.84448H29.6591C28.5667 6.84448 27.6818 7.71959 27.6818 8.80004C27.6818 9.88048 28.5667 10.7556 29.6591 10.7556H40.0398Z" fill="#25AAE1"/>
<path d="M76.3375 62.2575C75.7765 61.3311 74.5605 61.0304 73.6237 61.5853C72.687 62.1402 72.383 63.3429 72.9441 64.2693L81.8418 78.9409C82.7192 80.3733 83.1295 82.0307 83.0306 83.7247L81.4908 107.92C81.4216 108.998 82.2496 109.927 83.3396 109.995C83.3816 109.998 83.4236 110 83.4656 110C84.5012 110 85.3712 109.203 85.4379 108.167L86.9778 83.9618C87.1236 81.4635 86.518 79.0264 85.2279 76.9218L76.3351 62.2575H76.3375Z" fill="#FFC224"/>
<path d="M72.0716 78.9213C71.0953 78.4349 69.9065 78.8211 69.4146 79.7866C69.0538 80.4931 68.5965 81.1115 68.1195 81.6444L58.1219 65.5795C57.1086 63.9491 55.0374 63.3649 53.3073 64.2204C49.3082 66.198 47.4768 70.9622 49.1377 75.0664L53.0255 84.678C53.3542 85.492 53.4605 86.3598 53.3295 87.186C52.7363 90.9382 52.0319 100.212 58.2677 105.25C58.6187 105.534 58.8214 105.945 58.8214 106.377V108.047C58.8214 109.127 59.7062 110.002 60.7987 110.002C61.8911 110.002 62.7759 109.127 62.7759 108.047V106.377C62.7759 104.766 62.0443 103.251 60.769 102.222C56.1175 98.4646 56.7477 90.8795 57.2346 87.7898C57.4744 86.2693 57.289 84.6927 56.6958 83.226L52.808 73.6144C51.9331 71.4535 52.8401 68.9529 54.8743 67.8235L67.7636 88.5378C68.337 89.4569 69.553 89.7453 70.4848 89.1782C71.4141 88.6111 71.7058 87.4084 71.1324 86.4869L70.2599 85.0862C71.3894 84.0131 72.2916 82.83 72.9441 81.5491C73.4359 80.586 73.0454 79.4078 72.0691 78.9213H72.0716Z" fill="#FFC224"/>
<path d="M15.571 84.9444C15.571 89.3249 19.1746 92.8889 23.6037 92.8889H46.0952C47.0294 92.8889 47.9143 92.7373 48.7225 92.4416C49.7457 92.0651 50.2672 90.9407 49.8866 89.9262C49.506 88.9142 48.3666 88.3984 47.3433 88.7749C46.9775 88.9093 46.5573 88.9778 46.0952 88.9778H23.6037C21.3545 88.9778 19.5256 87.1689 19.5256 84.9444C19.5256 83.8664 19.9482 82.8593 20.7169 82.1113C20.7243 82.104 20.7317 82.0967 20.7391 82.0893C21.4954 81.3291 22.5137 80.9111 23.6037 80.9111H45.4031C46.4956 80.9111 47.3804 80.036 47.3804 78.9556C47.3804 77.8751 46.4956 77 45.4031 77H23.6037C21.4509 77 19.4366 77.8287 17.9314 79.3344C16.4089 80.8231 15.571 82.8153 15.571 84.9444Z" fill="#25AAE1"/>
<path d="M20.267 43.7091C20.267 44.7896 21.1519 45.6647 22.2443 45.6647H27.0343C27.6027 47.2414 27.9339 48.5051 27.6991 49.698C27.3679 51.3945 25.7985 53.2742 22.7609 55.6087C22.0935 56.122 21.8316 56.9971 22.1034 57.7867C22.3778 58.5762 23.1291 59.1067 23.9744 59.1067H44.7358C45.8282 59.1067 46.7131 58.2316 46.7131 57.1511C46.7131 56.0707 45.8282 55.1956 44.7358 55.1956H29.0437C32.0738 51.7611 32.1356 48.9427 31.1742 45.6622H39.7926C40.8851 45.6622 41.7699 44.7871 41.7699 43.7067C41.7699 42.6262 40.8851 41.7511 39.7926 41.7511H29.7851C29.5429 41.1009 29.3032 40.4262 29.0783 39.7051C28.0921 36.5616 28.2206 33.9314 29.4391 32.2936C30.539 30.8171 32.3185 30.5067 33.6161 30.5067C37.7338 30.5067 39.103 33.0171 39.2241 33.2591C39.239 33.2958 39.239 33.2934 39.2612 33.3374L39.5084 33.8262C39.9978 34.7918 41.1841 35.1829 42.1604 34.7014C43.1367 34.2174 43.5321 33.044 43.0452 32.0785L42.8055 31.6042C42.4891 30.9491 40.1312 26.5956 33.6136 26.5956C30.4895 26.5956 27.8746 27.7958 26.2532 29.9738C24.271 32.6358 23.9324 36.5029 25.2992 40.8638C25.3931 41.1669 25.492 41.4627 25.5909 41.7511H22.2443C21.1519 41.7511 20.267 42.6262 20.267 43.7067V43.7091Z" fill="#2BB673"/>
</g>
<defs>
<clipPath id="clip0_810_629">
<rect width="87" height="110" fill="white"/>
</clipPath>
</defs>
</svg>
