<svg width="84" height="112" viewBox="0 0 84 112" fill="none" xmlns="http://www.w3.org/2000/svg">
<g clip-path="url(#clip0_810_655)">
<path d="M49.8284 45.2977H34.1716C33.0731 45.2977 32.1834 46.1888 32.1834 47.2888C32.1834 48.3889 33.0731 49.28 34.1716 49.28H49.8284C50.9268 49.28 51.8165 48.3889 51.8165 47.2888C51.8165 46.1888 50.9268 45.2977 49.8284 45.2977Z" fill="#2BB673"/>
<path d="M29.6137 35.3422H54.3863C55.4847 35.3422 56.3744 34.4512 56.3744 33.3511C56.3744 32.251 55.4847 31.36 54.3863 31.36H29.6137C28.5153 31.36 27.6255 32.251 27.6255 33.3511C27.6255 34.4512 28.5153 35.3422 29.6137 35.3422Z" fill="#2BB673"/>
<path d="M52.3658 39.2025C51.2674 39.2424 50.4124 40.1657 50.4522 41.2658C50.492 42.341 51.3742 43.1848 52.4379 43.1848C52.4627 43.1848 52.4876 43.1848 52.5124 43.1848C53.4121 43.1524 54.3242 43.1151 55.2362 43.0802C55.9718 43.0504 56.7075 43.023 57.4381 42.9956C58.206 42.9657 58.9367 42.6795 59.5008 42.1867C60.0128 41.7387 60.4924 41.2484 60.9249 40.7257C61.6282 39.8795 61.5139 38.6251 60.6689 37.9208C59.8264 37.2189 58.5714 37.3309 57.8681 38.1771C57.6195 38.4758 57.3511 38.7595 57.0653 39.0233C56.4068 39.0482 55.7432 39.0756 55.0797 39.1005C54.1701 39.1353 53.2605 39.1727 52.3633 39.205L52.3658 39.2025Z" fill="#2BB673"/>
<path d="M24.5017 42.1842C25.0633 42.677 25.7965 42.9632 26.5644 42.9931C27.2951 43.0205 28.0307 43.0503 28.7663 43.0777C29.6784 43.1126 30.5904 43.1499 31.4901 43.1822C31.5149 43.1822 31.5398 43.1822 31.5646 43.1822C32.6283 43.1822 33.5106 42.3385 33.5503 41.2633C33.5901 40.1632 32.7352 39.2398 31.6367 39.2C30.7396 39.1677 29.8325 39.1303 28.9229 39.0955C28.2593 39.0706 27.5958 39.0432 26.9372 39.0183C26.6514 38.7545 26.3805 38.4708 26.1345 38.1721C25.4312 37.3259 24.1786 37.2139 23.3336 37.9158C22.4887 38.6201 22.3743 39.8745 23.0777 40.7207C23.5101 41.2409 23.9897 41.7337 24.5042 42.1817L24.5017 42.1842Z" fill="#2BB673"/>
<path d="M26.5097 61.4755C28.4159 61.4755 29.9965 60.0569 30.2127 58.1678L30.496 56.2489H53.5065L53.7898 58.1678C54.006 60.0569 55.5891 61.4755 57.4928 61.4755H62.8782C64.9335 61.4755 66.606 59.8005 66.606 57.7422V54.8825C67.702 53.8919 68.3457 52.4757 68.3457 50.9575V40.8103C68.3457 39.4414 67.9505 38.1123 67.205 36.9724L66.4023 35.7454L68.1593 34.8718C68.2612 34.822 68.3581 34.7623 68.4501 34.6951C69.9387 33.605 70.4954 31.4695 69.7772 29.6203L69.3746 28.565C69.3746 28.565 69.3646 28.5401 69.3597 28.5276C68.6862 26.8626 67.0882 25.8969 65.4678 26.1806C65.3709 26.198 65.269 26.2155 65.1621 26.2329C64.9434 26.2702 64.7098 26.31 64.4688 26.3573C64.4389 26.3623 64.4091 26.3648 64.3793 26.3698C63.8823 26.4544 62.9528 26.6883 61.4965 27.0617L59.7518 23.2089C58.6385 20.7523 56.1955 19.1644 53.5289 19.1644H30.4736C27.807 19.1644 25.364 20.7523 24.2507 23.2089L22.506 27.0617C21.0472 26.6883 20.1178 26.4569 19.6207 26.3698C19.5909 26.3648 19.5636 26.3598 19.5337 26.3573C19.2927 26.31 19.0591 26.2702 18.8404 26.2329C18.7335 26.2155 18.6316 26.198 18.5272 26.1781C16.9118 25.8944 15.3139 26.8601 14.6428 28.5251C14.6379 28.5376 14.6329 28.55 14.6279 28.5625L14.2303 29.6078C13.5046 31.462 14.0613 33.6 15.5549 34.6926C15.6469 34.7598 15.7438 34.8195 15.8457 34.8693L17.6027 35.7429L16.8 36.9675C16.0544 38.1099 15.6593 39.4364 15.6593 40.8053V50.9525C15.6593 52.4707 16.303 53.8869 17.3989 54.8775V57.7372C17.3989 59.7955 19.0715 61.4706 21.1268 61.4706H26.5122L26.5097 61.4755ZM20.3265 52.1123C19.9935 51.9331 19.6356 51.5349 19.6356 50.9575V40.8103C19.6356 40.2179 19.8046 39.6455 20.1277 39.1552L22.1581 36.054C22.4688 35.5787 22.5632 34.9913 22.4141 34.4412C22.265 33.8912 21.8897 33.4332 21.3802 33.1794L17.9233 31.4595C17.8935 31.365 17.8836 31.2032 17.9432 31.0464L18.2737 30.1778C18.4079 30.2002 18.5471 30.2251 18.6888 30.2499C18.8255 30.2873 18.9497 30.3047 19.0516 30.3147C19.5288 30.4092 20.662 30.7004 21.671 30.9568C22.1705 31.0837 22.68 31.2156 23.1522 31.3326C24.0842 31.5641 25.0484 31.0987 25.4436 30.2226L27.8766 24.8515C28.3463 23.8137 29.3677 23.1442 30.4786 23.1442H53.5339C54.6447 23.1442 55.6662 23.8137 56.1359 24.8515L58.5689 30.2201C58.964 31.0962 59.9283 31.5616 60.8602 31.3301C61.3324 31.2131 61.8394 31.0812 62.3414 30.9543C63.3504 30.6955 64.4862 30.4067 64.9608 30.3122C65.0627 30.3022 65.187 30.2848 65.3237 30.2475C65.4653 30.2201 65.6045 30.1977 65.7387 30.1753L66.0692 31.0439C66.0692 31.0439 66.0742 31.0539 66.0767 31.0613C66.1314 31.2032 66.1189 31.3625 66.0916 31.4571L62.6347 33.1769C62.1252 33.4307 61.7499 33.8887 61.6008 34.4387C61.4517 34.9888 61.5462 35.5762 61.8568 36.0515L63.8872 39.1527C64.2078 39.643 64.3768 40.2155 64.3768 40.8078V50.955C64.3768 51.5324 64.0189 51.9307 63.6859 52.1099C63.0398 52.4558 62.6372 53.1303 62.6372 53.8645V57.4908H57.7189L57.535 56.2464H57.6668C58.7652 56.2464 59.6549 55.3554 59.6549 54.2553C59.6549 53.1552 58.7652 52.2642 57.6668 52.2642H26.3531C25.2547 52.2642 24.365 53.1552 24.365 54.2553C24.365 55.3554 25.2547 56.2464 26.3531 56.2464H26.4849L26.301 57.4908H21.3827V53.8645C21.3827 53.1303 20.9801 52.4558 20.334 52.1099L20.3265 52.1123Z" fill="#2BB673"/>
<path d="M38.6673 100.394C39.649 101.161 40.8245 101.544 42 101.544C43.1755 101.544 44.351 101.161 45.3327 100.394C47.373 98.8014 58.0346 90.2596 67.6946 78.4324C78.5152 65.189 84 52.9511 84 42.0597C84 18.8683 65.1596 0 42 0C18.8404 0 0 18.8683 0 42.0622C0 52.9536 5.48485 65.189 16.3054 78.4348C25.9654 90.2596 36.6295 98.8039 38.6673 100.397V100.394ZM42 3.98222C62.9652 3.98222 80.0237 21.066 80.0237 42.0622C80.0237 52.0103 74.8395 63.3995 64.6179 75.9111C55.2263 87.4073 44.8679 95.7077 42.8872 97.2533C42.3554 97.669 41.6421 97.669 41.1128 97.2533C39.1321 95.7077 28.7762 87.4073 19.3821 75.9111C9.15799 63.397 3.97633 52.0078 3.97633 42.0622C3.97633 21.066 21.0348 3.98222 42 3.98222Z" fill="#25AAE1"/>
<path d="M77.2228 93.7167C73.5547 92.2308 68.368 91.0013 62.2221 90.1625C61.1336 90.0157 60.1321 90.7773 59.983 91.8674C59.8338 92.9575 60.5968 93.9606 61.6853 94.1099C75.4062 95.984 80.0237 99.2345 80.0237 100.429C80.0237 101.051 78.1498 103.279 69.8294 105.27C62.421 107.045 52.5373 108.02 42 108.02C31.4627 108.02 21.5791 107.045 14.1707 105.27C5.84769 103.279 3.97633 101.051 3.97633 100.429C3.97633 99.2345 8.59385 95.984 22.3147 94.1099C23.4032 93.9606 24.1637 92.9575 24.017 91.8674C23.8679 90.7773 22.8689 90.0157 21.7779 90.1625C15.632 91.0013 10.4453 92.2308 6.77716 93.7167C2.28142 95.5385 0 97.7959 0 100.427C0 104.105 4.45598 107.037 13.2462 109.14C20.9478 110.985 31.1595 112 42 112C52.8405 112 63.0497 110.985 70.7539 109.14C79.544 107.037 84 104.105 84 100.427C84 97.7959 81.7211 95.536 77.2228 93.7167Z" fill="#FFC224"/>
</g>
<defs>
<clipPath id="clip0_810_655">
<rect width="84" height="112" fill="white"/>
</clipPath>
</defs>
</svg>
