<svg width="98" height="112" viewBox="0 0 98 112" fill="none" xmlns="http://www.w3.org/2000/svg">
<g clip-path="url(#clip0_810_648)">
<path d="M90.5032 70.0573C87.6951 69.4625 84.8371 70.0449 82.4593 71.7025L70.4431 80.0502C67.3315 76.4612 62.3245 75.1097 57.8548 76.852L50.5695 79.6893C49.9676 79.4578 48.8408 78.8953 47.8235 78.3901C40.3641 74.6767 22.8907 65.9855 9.22791 78.9526C8.5837 79.5649 7.96933 80.0104 7.34999 80.319L1.10436 83.4127C0.119384 83.9005 -0.28356 85.0952 0.203953 86.0808C0.691465 87.0664 1.88537 87.4696 2.87035 86.9817L9.11598 83.888C10.096 83.4027 11.0287 82.7332 11.9664 81.8422C23.6095 70.789 38.7672 78.3329 46.05 81.9567C48.5995 83.226 49.6741 83.7412 50.6715 83.7611C50.9326 83.7661 51.1888 83.7213 51.4326 83.6267L59.295 80.5654C62.5832 79.2861 66.3365 80.6226 68.2219 83.7462C68.3189 83.908 68.2866 84.0722 68.2692 84.1345C68.2493 84.1992 68.202 84.3161 68.0851 84.3709L54.0816 91.173C53.1339 91.6335 52.0793 91.8824 51.0396 91.8649L34.8024 91.7405C33.6956 91.7256 32.8051 92.6166 32.7977 93.7167C32.7902 94.8168 33.6732 95.7153 34.7726 95.7227L51.0097 95.8472C51.0371 95.8472 51.0645 95.8472 51.0918 95.8472C52.716 95.8472 54.3502 95.4713 55.8202 94.757L69.8237 87.9549C70.9107 87.4273 71.7365 86.4466 72.0847 85.2669C72.2414 84.7368 72.2912 84.1867 72.2489 83.6466L84.7302 74.9753C86.1977 73.9524 87.9537 73.589 89.675 73.9549C91.4559 74.3332 92.9756 75.4333 93.9531 77.0536C94.0725 77.2502 94.0278 77.5314 93.8561 77.6534L76.8181 89.9659C76.8006 89.9784 76.7832 89.9933 76.7633 90.0057L62.5931 100.989C56.3077 105.86 48.2762 107.744 40.5556 106.159L19.6746 101.865C17.4932 101.417 15.2571 101.651 13.2076 102.54C9.13588 104.307 5.05918 106.221 1.08944 108.234C0.109435 108.732 -0.28356 109.929 0.213902 110.91C0.564613 111.602 1.26355 112.003 1.98984 112.003C2.29329 112.003 2.59923 111.933 2.88776 111.788C6.78786 109.812 10.7924 107.931 14.792 106.196C16.0879 105.633 17.5007 105.487 18.8762 105.768L39.7571 110.061C48.6169 111.881 57.8299 109.725 65.0332 104.14L79.176 93.1766L96.1867 80.884C98.0323 79.5499 98.5472 76.964 97.3583 74.9953C95.8037 72.4217 93.3686 70.6696 90.5008 70.0598L90.5032 70.0573Z" fill="#FFC224"/>
<path d="M36.8147 44.0534H61.1903C62.2897 44.0534 63.1802 43.1624 63.1802 42.0623C63.1802 40.9622 62.2897 40.0712 61.1903 40.0712H36.8147C35.7153 40.0712 34.8248 40.9622 34.8248 42.0623C34.8248 43.1624 35.7153 44.0534 36.8147 44.0534Z" fill="#25AAE1"/>
<path d="M65.0183 34.8444C65.0432 34.8444 65.068 34.8444 65.0929 34.8444C66.4684 34.7946 67.8663 34.7399 69.2616 34.6851C70.3959 34.6403 71.5276 34.5955 72.6494 34.5532C73.5846 34.5184 74.4775 34.1724 75.1591 33.5751C75.9053 32.923 76.5992 32.2112 77.2285 31.457C77.9324 30.6108 77.8155 29.3564 76.9723 28.6521C76.1266 27.9477 74.873 28.0647 74.1691 28.9084C73.6766 29.5008 73.1294 30.0608 72.5573 30.5635C72.5524 30.5635 72.5325 30.5735 72.5001 30.5735C71.3759 30.6158 70.2416 30.6606 69.1049 30.7054C67.712 30.7601 66.3192 30.8149 64.9462 30.8647C63.8468 30.9045 62.9911 31.8279 63.0309 32.928C63.0707 34.0032 63.9537 34.8469 65.0183 34.8469V34.8444Z" fill="#25AAE1"/>
<path d="M22.8435 33.5751C23.525 34.1699 24.4179 34.5184 25.3532 34.5532C26.4774 34.5955 27.6091 34.6403 28.7434 34.6851C30.1387 34.7399 31.5341 34.7946 32.9096 34.8444C32.9345 34.8444 32.9594 34.8444 32.9842 34.8444C34.0488 34.8444 34.9318 34.0007 34.9716 32.9255C35.0114 31.8254 34.1557 30.902 33.0564 30.8622C31.6834 30.8124 30.2905 30.7577 28.8976 30.7029C27.7609 30.6581 26.6267 30.6133 25.4999 30.571C25.4701 30.571 25.4502 30.5635 25.4576 30.571C24.8731 30.0583 24.3259 29.4983 23.8309 28.9059C23.127 28.0597 21.8734 27.9452 21.0277 28.6496C20.182 29.3539 20.0676 30.6083 20.7715 31.4546C21.4008 32.2087 22.0948 32.923 22.841 33.5751H22.8435Z" fill="#25AAE1"/>
<path d="M9.03392 22.0366C9.12595 22.1038 9.22296 22.1636 9.32494 22.2158L13.1106 24.1124L11.2103 27.0368C10.1806 28.6222 9.63585 30.464 9.63585 32.368V48.048C9.63585 50.2382 10.6333 52.2742 12.3047 53.6057V58.5337C12.3047 61.1172 14.3941 63.2178 16.9635 63.2178H25.2263C27.6042 63.2178 29.5791 61.4457 29.8527 59.0813L30.6486 54.5067H67.3489L68.1448 59.0813C68.4209 61.4457 70.3958 63.2178 72.7737 63.2178H81.0366C83.6059 63.2178 85.6953 61.1172 85.6953 58.5337V53.6057C87.3668 52.2742 88.3667 50.2382 88.3667 48.0455V32.3655C88.3667 30.464 87.8219 28.6198 86.7922 27.0343L84.8919 24.1074L88.6751 22.2109C88.7771 22.1586 88.8741 22.1014 88.9661 22.0317C90.8341 20.6528 91.5504 17.8304 90.6351 15.4635L90.0182 13.8283C90.0133 13.8158 90.0083 13.8034 90.0033 13.791C89.1477 11.658 87.22 10.4658 85.1978 10.8217C85.0436 10.8491 84.8819 10.8765 84.7128 10.9063C84.3795 10.9636 84.0213 11.0233 83.6532 11.098H83.6482C83.6059 11.103 83.5662 11.1079 83.5239 11.1154C82.7205 11.2548 80.9744 11.7028 78.9547 12.223C78.7457 12.2777 78.5343 12.33 78.3229 12.3847L75.276 5.61246C73.7413 2.19771 70.371 -0.00744629 66.6898 -0.00744629H31.3103C27.6315 -0.00744629 24.2612 2.19771 22.7241 5.61246L19.6771 12.3872C19.4657 12.3325 19.2543 12.2777 19.0453 12.2254C17.0256 11.7053 15.282 11.2573 14.4762 11.1179C14.4364 11.1104 14.3966 11.1054 14.3568 11.1005C14.3543 11.1005 14.3518 11.1005 14.3468 11.1005C13.9787 11.0283 13.6205 10.9661 13.2872 10.9088C13.1181 10.879 12.9539 10.8516 12.7922 10.8242C10.7775 10.4658 8.84737 11.663 7.99423 13.7934C7.98925 13.8059 7.98428 13.8183 7.9793 13.8308L7.36494 15.456C6.44463 17.8254 7.16098 20.6528 9.03143 22.0342L9.03392 22.0366ZM11.0835 16.8846L11.6953 15.2644C11.8471 14.896 12.0485 14.7566 12.0958 14.7467C12.2624 14.7766 12.4366 14.8064 12.6206 14.8388C12.8868 14.8836 13.1703 14.9334 13.4638 14.9881C13.6354 15.0354 13.7921 15.0578 13.914 15.0678C14.6453 15.2096 16.3765 15.6551 18.0554 16.0882C18.8215 16.2848 19.6 16.4864 20.3213 16.6681C21.2566 16.9021 22.2266 16.4342 22.6221 15.5531L26.3555 7.25513C27.2485 5.26651 29.1936 3.98473 31.3103 3.98473H66.6922C68.8089 3.98473 70.754 5.269 71.6495 7.25513L75.3804 15.5531C75.7759 16.4342 76.746 16.9021 77.6812 16.6681C78.4025 16.4864 79.181 16.2873 79.9471 16.0882C81.6236 15.6576 83.3572 15.2121 84.0885 15.0678C84.2104 15.0578 84.3671 15.0379 84.5387 14.9881C84.8322 14.9309 85.1157 14.8836 85.3819 14.8388C85.5635 14.8089 85.7401 14.7766 85.8943 14.7492C85.9515 14.7591 86.153 14.896 86.3047 15.2644L86.9166 16.8846C86.9166 16.8846 86.9215 16.8971 86.924 16.9021C87.1951 17.599 87.0285 18.4103 86.6902 18.7563L81.1211 21.5463C80.6137 21.8002 80.2406 22.2582 80.0914 22.8057C79.9421 23.3533 80.0342 23.9382 80.3426 24.4135L83.4567 29.2071C84.0661 30.1454 84.387 31.2381 84.387 32.368V48.048C84.387 49.1979 83.7627 50.2507 82.7603 50.7933C82.1161 51.1417 81.7156 51.8137 81.7156 52.5454V58.5362C81.7156 58.922 81.4097 59.2381 81.0366 59.2381H72.7737C72.423 59.2381 72.132 58.9668 72.0972 58.6084C72.0922 58.5586 72.0847 58.5113 72.0773 58.464L71.3883 54.5117H73.3756C74.475 54.5117 75.3655 53.6206 75.3655 52.5206C75.3655 51.4205 74.475 50.5294 73.3756 50.5294H24.6244C23.525 50.5294 22.6345 51.4205 22.6345 52.5206C22.6345 53.6206 23.525 54.5117 24.6244 54.5117H26.6117L25.9228 58.464C25.9153 58.5113 25.9078 58.5611 25.9029 58.6084C25.868 58.9668 25.577 59.2381 25.2263 59.2381H16.9635C16.5879 59.2381 16.2844 58.9245 16.2844 58.5362V52.5454C16.2844 51.8137 15.884 51.1417 15.2398 50.7933C14.2374 50.2507 13.6155 49.1979 13.6155 48.048V32.368C13.6155 31.2381 13.9364 30.1454 14.5458 29.2071L17.6599 24.4135C17.9683 23.9382 18.0604 23.3533 17.9111 22.8057C17.7619 22.2582 17.3888 21.8002 16.8814 21.5463L11.3098 18.7563C10.974 18.4078 10.8074 17.5965 11.0835 16.8846Z" fill="#25AAE1"/>
<path d="M40.5432 24.6599H43.7195C44.0353 25.6007 44.2045 26.3722 44.0702 27.0592C43.8538 28.1841 42.7196 29.5306 40.6053 31.1758C39.9338 31.6985 39.6701 32.5895 39.9437 33.3934C40.2198 34.1973 40.976 34.7374 41.8266 34.7374H57.2106C58.31 34.7374 59.2005 33.8464 59.2005 32.7463C59.2005 31.6462 58.31 30.7552 57.2106 30.7552H46.6719C48.1941 28.6371 48.326 26.7456 47.836 24.6599H53.5468C54.6462 24.6599 55.5367 23.7688 55.5367 22.6688C55.5367 21.5687 54.6462 20.6776 53.5468 20.6776H46.4978C46.3635 20.3043 46.2316 19.9185 46.1073 19.5128C45.4382 17.3525 45.5053 15.4983 46.2963 14.4256C46.846 13.6789 47.7464 13.2981 48.9702 13.2981C51.6117 13.2981 52.5121 14.7939 52.6489 15.0552C52.6638 15.0926 52.6588 15.0801 52.6862 15.1299L52.8703 15.4958C53.3628 16.4789 54.5567 16.8771 55.5391 16.3868C56.5216 15.894 56.9196 14.6993 56.4296 13.7162L56.2654 13.3877C55.5665 11.8496 53.2732 9.31836 48.9727 9.31836C46.4878 9.31836 44.3985 10.294 43.0951 12.0661C41.5256 14.1966 41.2471 17.2554 42.3067 20.6801H40.5481C39.4487 20.6801 38.5583 21.5712 38.5583 22.6712C38.5583 23.7713 39.4487 24.6624 40.5481 24.6624L40.5432 24.6599Z" fill="#2BB673"/>
</g>
<defs>
<clipPath id="clip0_810_648">
<rect width="98" height="112" fill="white"/>
</clipPath>
</defs>
</svg>
