<svg width="22" height="22" viewBox="0 0 22 22" fill="none" xmlns="http://www.w3.org/2000/svg">
<path d="M6.41683 10.0833L10.0835 1.83325C10.8128 1.83325 11.5123 2.12298 12.028 2.63871C12.5438 3.15443 12.8335 3.85391 12.8335 4.58325V8.24992H18.0218C18.2876 8.24691 18.5508 8.30171 18.7933 8.41053C19.0357 8.51936 19.2516 8.67959 19.426 8.88014C19.6004 9.08069 19.7291 9.31676 19.8032 9.57198C19.8773 9.82721 19.895 10.0955 19.8552 10.3583L18.5902 18.6083C18.5239 19.0454 18.3018 19.4439 17.9649 19.7303C17.628 20.0166 17.199 20.1716 16.7568 20.1666H6.41683M6.41683 10.0833V20.1666M6.41683 10.0833H3.66683C3.1806 10.0833 2.71428 10.2764 2.37047 10.6202C2.02665 10.964 1.8335 11.4304 1.8335 11.9166V18.3333C1.8335 18.8195 2.02665 19.2858 2.37047 19.6296C2.71428 19.9734 3.1806 20.1666 3.66683 20.1666H6.41683" stroke="#1E1E1E" stroke-width="2" stroke-linecap="round" stroke-linejoin="round"/>
</svg>
