<svg width="50" height="37" viewBox="0 0 50 37" fill="none" xmlns="http://www.w3.org/2000/svg">
<path d="M46.2424 7.85252C46.0042 6.90089 45.5191 6.02896 44.8361 5.32481C44.1531 4.62066 43.2963 4.10923 42.3524 3.84217C38.9035 3 25.1079 3 25.1079 3C25.1079 3 11.3123 3 7.86337 3.92238C6.91943 4.18944 6.06268 4.70087 5.37965 5.40502C4.69663 6.10917 4.21152 6.98109 3.97333 7.93273C3.34213 11.4329 3.03338 14.9835 3.05095 18.5401C3.02845 22.1234 3.33723 25.7012 3.97333 29.2277C4.23593 30.1498 4.7319 30.9885 5.41334 31.6629C6.09477 32.3373 6.93862 32.8246 7.86337 33.0776C11.3123 34 25.1079 34 25.1079 34C25.1079 34 38.9035 34 42.3524 33.0776C43.2963 32.8106 44.1531 32.2991 44.8361 31.595C45.5191 30.8908 46.0042 30.0189 46.2424 29.0673C46.8687 25.5935 47.1775 22.0699 47.1648 18.5401C47.1873 14.9568 46.8785 11.379 46.2424 7.85252Z" stroke="#25AAE1" stroke-width="4.62" stroke-linecap="round" stroke-linejoin="round"/>
<path d="M20.5977 25.0982L32.1274 18.5413L20.5977 11.9844V25.0982Z" stroke="#25AAE1" stroke-width="4.62" stroke-linecap="round" stroke-linejoin="round"/>
</svg>
